<svg width="520" height="346" viewBox="0 0 520 346" fill="none" xmlns="http://www.w3.org/2000/svg">
<g clip-path="url(#clip0_1_1663)">
<path d="M422.732 127.843C419.918 97.4642 369.281 98.0121 369.281 98.0121C369.281 98.0121 327.125 143.001 317.224 142.528C307.324 142.055 345.743 97.0358 345.743 97.0358C327.286 91.9651 275.438 106.622 275.438 106.622C275.438 106.622 268.14 166.381 258.661 163.49C249.181 160.599 267.827 110.902 267.827 110.902C248.713 113.188 228.068 131.401 228.068 131.401C200.865 162.171 241.858 195.449 241.858 195.449C241.858 195.449 238.882 216.104 222.053 237.466C222.053 237.466 218.427 241.32 214.219 248.212L219.17 249.073C219.789 247.844 220.461 246.643 221.184 245.472C221.188 245.462 221.19 245.458 221.199 245.45C221.212 245.432 221.218 245.417 221.231 245.4C221.701 244.696 222.383 243.691 223.221 242.476L223.223 242.471L223.225 242.466C225.252 239.769 226.659 237.765 227.576 236.303L227.582 236.288C233.736 227.793 242.374 216.835 247.172 215.058C247.172 215.058 246.757 214.193 246.506 212.607C246.72 213.388 246.937 214.205 247.172 215.058C252.488 234.662 294.355 245.045 318.816 244.31C343.277 243.574 334.142 235.138 323.304 222.14C312.466 209.141 285.325 207.358 278.193 201.76C271.06 196.162 283.3 193.93 298.839 197.872C314.371 201.816 319.509 218.897 344.521 225.732C369.532 232.567 397.237 188.179 397.237 188.179C378.727 190.572 348.92 175.427 348.761 169.176C348.605 162.919 395.132 171.622 402.711 171.07C410.303 170.518 425.547 158.222 422.732 127.843Z" fill="url(#paint0_linear_1_1663)"/>
<path d="M98.8087 76.9785C111.842 52.3087 154.375 70.4835 154.375 70.4835C154.375 70.4835 174.162 123.221 182.681 126.285C191.2 129.349 174.578 77.892 174.578 77.892C191.931 80.0666 230.536 110.579 230.536 110.579C230.536 110.579 215.728 163.597 224.741 164.472C233.753 165.347 235.456 116.857 235.456 116.857C250.782 125.473 261.812 148.075 261.812 148.075C273.969 183.575 227.706 197.339 227.706 197.339C227.706 197.339 222.97 215.823 229.675 239.749C229.675 239.749 231.383 244.272 232.515 251.564L228.035 250.559C227.944 249.305 227.798 248.056 227.599 246.814C227.599 246.805 227.599 246.799 227.595 246.79C227.59 246.771 227.59 246.756 227.585 246.737C227.435 245.978 227.212 244.891 226.932 243.572V243.562C226.168 240.575 225.684 238.391 225.422 236.835V236.82C223.212 227.494 219.767 215.219 216.342 212.039C216.342 212.039 216.995 211.454 217.765 210.203C217.31 210.787 216.84 211.401 216.342 212.039C204.978 226.735 166.01 220.859 145.628 211.682C125.247 202.504 135.914 198.576 149.62 191.39C163.325 184.203 186.851 192.192 194.833 189.959C202.816 187.726 193.271 181.56 178.777 179.453C164.288 177.351 153.959 189.978 130.458 187.001C106.955 184.025 99.1525 136.849 99.1525 136.849C113.931 145.345 144.395 142.981 146.722 137.757C149.049 132.529 106.738 123.603 100.536 120.486C94.324 117.364 85.7758 101.649 98.8087 76.9785Z" fill="url(#paint1_linear_1_1663)"/>
<path d="M177.917 126.758L169.349 88.3552H144.571" stroke="#9AE5A5" stroke-width="30.865" stroke-linecap="round" stroke-linejoin="round"/>
<path fill-rule="evenodd" clip-rule="evenodd" d="M200.75 232.435L177.917 126.758H341.943C350.198 126.758 356.339 134.313 354.616 142.332L335.153 232.435C333.87 238.369 328.596 242.604 322.48 242.604H213.41C207.306 242.604 202.032 238.369 200.75 232.435Z" fill="#9AE5A5" stroke="#9AE5A5" stroke-width="30.865" stroke-linecap="round" stroke-linejoin="round"/>
<path d="M317.04 276.046C313.588 276.046 310.787 278.842 310.821 282.287C310.821 285.731 313.622 288.527 317.073 288.527C320.525 288.527 323.326 285.731 323.326 282.287C323.309 278.842 320.508 276.046 317.04 276.046ZM217.011 276.046C213.559 276.046 210.758 278.842 210.791 282.287C210.775 285.731 213.576 288.527 217.027 288.527C220.478 288.527 223.279 285.731 223.279 282.287C223.279 278.842 220.478 276.046 217.011 276.046Z" stroke="#9AE5A5" stroke-width="39.978" stroke-linecap="round" stroke-linejoin="round"/>
<path fill-rule="evenodd" clip-rule="evenodd" d="M395.308 216.362C382.913 216.362 372.863 206.332 372.863 193.961C372.863 181.59 382.913 171.56 395.308 171.56C407.703 171.56 417.752 181.59 417.752 193.961C417.752 206.332 407.703 216.362 395.308 216.362Z" fill="#9AE5A5"/>
<path d="M402.362 190.761L393.146 199.721L387.612 194.346" stroke="white" stroke-width="6.539" stroke-linecap="round" stroke-linejoin="round"/>
<path fill-rule="evenodd" clip-rule="evenodd" d="M410.377 143.399C397.805 143.399 387.612 133.082 387.612 120.357C387.612 107.632 397.805 97.3159 410.377 97.3159C422.95 97.3159 433.142 107.632 433.142 120.357C433.142 133.082 422.95 143.399 410.377 143.399Z" fill="#9AE5A5"/>
<path d="M418.394 116.517L408.777 126.758L403.003 120.614" stroke="white" stroke-width="6.539" stroke-linecap="round" stroke-linejoin="round"/>
<path fill-rule="evenodd" clip-rule="evenodd" d="M115.034 164.396C102.563 164.396 92.4512 154.303 92.4512 141.857C92.4512 129.409 102.563 119.318 115.034 119.318C127.505 119.318 137.616 129.409 137.616 141.857C137.616 154.303 127.505 164.396 115.034 164.396Z" fill="#9AE5A5"/>
<path d="M122.561 138.441L113.154 148.003L107.506 142.267" stroke="white" stroke-width="6.539" stroke-linecap="round" stroke-linejoin="round"/>
<path d="M310.019 157.479H222.806C219.265 157.479 216.394 160.345 216.394 163.879V166.439C216.394 169.974 219.265 172.84 222.806 172.84H310.019C313.561 172.84 316.432 169.974 316.432 166.439V163.879C316.432 160.345 313.561 157.479 310.019 157.479Z" fill="white"/>
<path d="M310.019 193.961H222.806C219.265 193.961 216.394 196.827 216.394 200.362V202.921C216.394 206.456 219.265 209.322 222.806 209.322H310.019C313.561 209.322 316.432 206.456 316.432 202.921V200.362C316.432 196.827 313.561 193.961 310.019 193.961Z" fill="white"/>
<path d="M285.927 85.5156C297.272 71.5049 291.872 48.3604 291.872 48.3604C291.872 48.3604 268.08 47.9475 256.745 61.9686C245.4 75.9799 250.791 99.1134 250.791 99.1134C250.791 99.1134 274.582 99.5263 285.927 85.5156Z" fill="url(#paint2_linear_1_1663)"/>
<path d="M426.46 155.559H426.362C425.783 163.461 419.677 163.583 419.677 163.583C419.677 163.583 426.41 163.709 426.41 172.84C426.41 163.709 433.143 163.583 433.143 163.583C433.143 163.583 427.039 163.461 426.46 155.559ZM232.155 79.3948H232.057C231.478 87.2968 225.372 87.4185 225.372 87.4185C225.372 87.4185 232.105 87.5448 232.105 96.6757C232.105 87.5448 238.839 87.4185 238.839 87.4185C238.839 87.4185 232.735 87.2968 232.155 79.3948ZM91.7173 96.6757H91.6191C91.0395 104.578 84.9336 104.699 84.9336 104.699C84.9336 104.699 91.667 104.826 91.667 113.957C91.667 104.826 98.4004 104.699 98.4004 104.699C98.4004 104.699 92.2968 104.578 91.7173 96.6757ZM369.199 232.134C365.344 233.266 360.205 235.544 357.437 239.695C354.67 243.847 358.326 244.844 363.035 243.834C367.744 242.823 372.319 239.908 374.035 236.047C375.752 232.185 372.364 231.205 369.199 232.134Z" fill="#E1E4E5"/>
<path fill-rule="evenodd" clip-rule="evenodd" d="M148.779 236.411H150.436C150.837 236.411 151.159 236.737 151.159 237.133V238.787C151.159 239.186 150.833 239.509 150.436 239.509H148.779C148.587 239.508 148.404 239.432 148.268 239.296C148.133 239.161 148.056 238.978 148.056 238.787V237.133C148.056 237.038 148.074 236.944 148.11 236.856C148.147 236.769 148.2 236.689 148.267 236.622C148.334 236.555 148.414 236.502 148.502 236.465C148.59 236.429 148.684 236.411 148.779 236.411ZM154.523 236.411H156.18C156.577 236.411 156.903 236.737 156.903 237.133V238.787C156.903 239.186 156.577 239.509 156.18 239.509H154.523C154.332 239.508 154.148 239.431 154.013 239.296C153.877 239.161 153.801 238.978 153.8 238.787V237.133C153.8 236.737 154.126 236.411 154.523 236.411ZM160.272 236.411H161.929C162.326 236.411 162.651 236.737 162.651 237.133V238.787C162.651 239.186 162.326 239.509 161.929 239.509H160.272C160.08 239.508 159.896 239.432 159.761 239.296C159.625 239.161 159.549 238.978 159.548 238.787V237.133C159.548 237.038 159.567 236.944 159.603 236.856C159.639 236.769 159.693 236.689 159.76 236.622C159.827 236.555 159.907 236.502 159.995 236.465C160.082 236.429 160.177 236.411 160.272 236.411ZM166.016 236.411H167.674C168.07 236.411 168.397 236.737 168.397 237.133V238.787C168.397 239.186 168.07 239.509 167.674 239.509H166.016C165.824 239.508 165.64 239.432 165.504 239.297C165.368 239.162 165.291 238.978 165.29 238.787V237.133C165.292 236.941 165.369 236.758 165.505 236.623C165.641 236.488 165.825 236.412 166.016 236.411ZM171.761 236.411H173.418C173.819 236.411 174.145 236.737 174.145 237.133V238.787C174.145 239.186 173.819 239.509 173.418 239.509H171.761C171.57 239.508 171.386 239.432 171.251 239.296C171.115 239.161 171.039 238.978 171.038 238.787V237.133C171.038 236.737 171.364 236.411 171.761 236.411ZM154.734 242.663H156.391C156.788 242.663 157.114 242.989 157.114 243.385V245.042C157.114 245.438 156.788 245.764 156.391 245.764H154.734C154.542 245.764 154.359 245.688 154.223 245.552C154.087 245.417 154.011 245.234 154.011 245.042V243.388C154.01 243.293 154.028 243.199 154.065 243.111C154.101 243.023 154.154 242.943 154.221 242.875C154.288 242.808 154.368 242.754 154.456 242.718C154.544 242.682 154.639 242.663 154.734 242.663ZM160.479 242.663H162.136C162.533 242.663 162.859 242.989 162.859 243.385V245.042C162.859 245.438 162.533 245.764 162.136 245.764H160.479C160.287 245.763 160.104 245.687 159.968 245.552C159.833 245.417 159.756 245.234 159.756 245.042V243.388C159.755 243.293 159.773 243.199 159.809 243.111C159.846 243.023 159.899 242.943 159.966 242.875C160.033 242.808 160.113 242.754 160.201 242.718C160.289 242.682 160.384 242.663 160.479 242.663ZM166.224 242.663H167.88C168.281 242.663 168.607 242.989 168.607 243.385V245.042C168.607 245.438 168.281 245.764 167.88 245.764H166.224C166.032 245.763 165.849 245.687 165.713 245.552C165.578 245.417 165.501 245.234 165.501 245.042V243.388C165.501 242.989 165.826 242.663 166.224 242.663ZM160.272 229.694H161.929C162.326 229.694 162.651 230.02 162.651 230.416V232.07C162.651 232.47 162.326 232.792 161.929 232.792H160.272C160.08 232.791 159.897 232.715 159.761 232.58C159.625 232.445 159.549 232.261 159.548 232.07V230.416C159.548 230.321 159.567 230.227 159.603 230.14C159.639 230.052 159.692 229.972 159.76 229.905C159.827 229.838 159.907 229.785 159.995 229.749C160.082 229.713 160.177 229.694 160.272 229.694ZM166.016 229.694H167.674C168.07 229.694 168.397 230.02 168.397 230.416V232.07C168.397 232.47 168.07 232.792 167.674 232.792H166.016C165.824 232.792 165.64 232.716 165.504 232.581C165.368 232.445 165.291 232.262 165.29 232.07V230.416C165.292 230.225 165.369 230.042 165.505 229.907C165.641 229.772 165.825 229.696 166.016 229.694Z" fill="#E1E4E5"/>
</g>
<defs>
<linearGradient id="paint0_linear_1_1663" x1="221.551" y1="375.752" x2="435.86" y2="-123.612" gradientUnits="userSpaceOnUse">
<stop stop-color="white"/>
<stop offset="1" stop-color="#EEEEEE"/>
</linearGradient>
<linearGradient id="paint1_linear_1_1663" x1="181.582" y1="356.705" x2="175.272" y2="-139.955" gradientUnits="userSpaceOnUse">
<stop stop-color="white"/>
<stop offset="1" stop-color="#EEEEEE"/>
</linearGradient>
<linearGradient id="paint2_linear_1_1663" x1="323.848" y1="30.4578" x2="192.087" y2="137.731" gradientUnits="userSpaceOnUse">
<stop stop-color="white"/>
<stop offset="1" stop-color="#EEEEEE"/>
</linearGradient>
<clipPath id="clip0_1_1663">
<rect width="520" height="346" fill="white"/>
</clipPath>
</defs>
</svg>
