<svg width="30" height="26" viewBox="0 0 30 26" fill="none" xmlns="http://www.w3.org/2000/svg">
<path d="M12.4071 19.3022L14.9226 14.1917L20.9681 14.1867L23.0672 15.1527L24.4748 15.1231L26.7572 17.1736L17.9705 23.4717C17.9705 23.4717 16.6841 21.6974 14.201 21.458C11.9914 21.2449 7.30376 22.1729 5.979 22.5106C3.34148 23.1831 4.4858 25.7372 4.67148 26C1.45619 24.2747 0.301235 23.3728 0.0324006 21.8376C-0.236434 20.3024 1.25583 19.6244 1.26196 19.3769C1.28772 18.9232 1.3832 18.5836 1.5677 18.2011C6.85013 19.1544 8.84404 19.1922 12.4071 19.3022ZM7.69823 16.8914L11.6235 13.7762L11.3043 16.9817L9.519 17.4896L7.69823 16.8914ZM14.9287 12.1154V11.0768L18.7417 8.81279C22.5872 8.2065 26.2486 7.83473 30 7.34826L26.2171 13.741L23.1289 13.7137L14.9287 12.1154ZM1.69801 17.5691C6.03648 13.8733 6.93834 11.1118 7.89042 9.42592C8.3905 8.52029 13.0043 5.88172 20.1779 1.17067V3.52734L29.9644 0L28.0042 5.82995C25.1922 7.22921 21.4822 7.03191 20.1007 7.29395C18.1048 7.50449 10.3509 10.3708 9.51503 12.0846C6.64092 16.792 1.69801 17.5691 1.69801 17.5691Z" fill="#85B839"/>
</svg>