<svg width="40" height="36" viewBox="0 0 40 36" fill="none" xmlns="http://www.w3.org/2000/svg">
<ellipse cx="20" cy="18.2001" rx="20" ry="17.7391" fill="#7AC751"/>
<mask id="mask0_1_634" style="mask-type:alpha" maskUnits="userSpaceOnUse" x="9" y="10" width="22" height="20">
<rect x="9" y="10.2178" width="21.3333" height="18.9217" fill="#D9D9D9"/>
</mask>
<g mask="url(#mask0_1_634)">
<path d="M14.3329 21.2558H24.9996V19.679H14.3329V21.2558ZM14.3329 18.8906H24.9996V17.3138H14.3329V18.8906ZM14.3329 16.5254H24.9996V14.9485H14.3329V16.5254ZM28.5551 27.563L24.9996 24.4094H12.5551C12.0662 24.4094 11.6477 24.255 11.2996 23.9462C10.9514 23.6374 10.7773 23.2662 10.7773 22.8326V13.3717C10.7773 12.9381 10.9514 12.5669 11.2996 12.2581C11.6477 11.9493 12.0662 11.7949 12.5551 11.7949H26.7773C27.2662 11.7949 27.6848 11.9493 28.0329 12.2581C28.381 12.5669 28.5551 12.9381 28.5551 13.3717V27.563ZM12.5551 13.3717V22.8326H25.7329L26.7773 23.759V13.3717H12.5551Z" fill="white"/>
</g>
</svg>
