<svg width="106" height="106" viewBox="0 0 106 106" fill="none" xmlns="http://www.w3.org/2000/svg">
<g filter="url(#filter0_d_1_229)">
<ellipse cx="52.776" cy="50.8496" rx="19.4245" ry="19.4472" fill="white"/>
</g>
<path d="M52.776 60.1559L44.5352 51.9054C43.4423 50.8113 42.8282 49.3273 42.8281 47.78C42.828 46.2326 43.4419 44.7486 44.5347 43.6544C45.6275 42.5602 47.1097 41.9454 48.6553 41.9453C50.2008 41.9452 51.6831 42.5598 52.776 43.6539C53.8695 42.5611 55.3514 41.9473 56.8964 41.9473C58.4415 41.9473 59.9234 42.5611 61.0169 43.6539V43.6539C62.1079 44.7489 62.7207 46.2324 62.7207 47.7791C62.7207 49.3258 62.1079 50.8094 61.0169 51.9044L52.776 60.1559ZM48.6551 43.8902C47.8867 43.8902 47.1355 44.1183 46.4966 44.5457C45.8577 44.9732 45.3597 45.5807 45.0657 46.2915C44.7717 47.0023 44.6948 47.7844 44.8448 48.539C44.9949 49.2935 45.365 49.9866 45.9085 50.5304L52.776 57.406L59.6435 50.5304C60.038 50.1443 60.3458 49.6785 60.5464 49.1641C60.7471 48.6496 60.836 48.0982 60.8072 47.5467C60.7785 46.9951 60.6327 46.456 60.3797 45.9652C60.1266 45.4745 59.7721 45.0433 59.3396 44.7004C58.9071 44.3575 58.4067 44.1107 57.8716 43.9765C57.3364 43.8423 56.7789 43.8237 56.2361 43.9221C55.6932 44.0204 55.1775 44.2333 54.7233 44.5467C54.269 44.8601 53.8866 45.2668 53.6016 45.7396L52.776 47.0737L51.9505 45.7396C51.6097 45.1708 51.1263 44.7011 50.5483 44.377C49.9702 44.0529 49.3176 43.8858 48.6551 43.8921V43.8902Z" fill="#757575"/>
<defs>
<filter id="filter0_d_1_229" x="0.351562" y="0.402344" width="104.85" height="104.895" filterUnits="userSpaceOnUse" color-interpolation-filters="sRGB">
<feFlood flood-opacity="0" result="BackgroundImageFix"/>
<feColorMatrix in="SourceAlpha" type="matrix" values="0 0 0 0 0 0 0 0 0 0 0 0 0 0 0 0 0 0 127 0" result="hardAlpha"/>
<feOffset dy="2"/>
<feGaussianBlur stdDeviation="16.5"/>
<feComposite in2="hardAlpha" operator="out"/>
<feColorMatrix type="matrix" values="0 0 0 0 0 0 0 0 0 0 0 0 0 0 0 0 0 0 0.09 0"/>
<feBlend mode="normal" in2="BackgroundImageFix" result="effect1_dropShadow_1_229"/>
<feBlend mode="normal" in="SourceGraphic" in2="effect1_dropShadow_1_229" result="shape"/>
</filter>
</defs>
</svg>
