<svg width="21" height="24" viewBox="0 0 21 24" fill="none" xmlns="http://www.w3.org/2000/svg">
<path d="M13.772 11.1284C15.3076 10.0084 16.3077 8.19581 16.3077 6.15384C16.3077 2.76061 13.5471 0 10.1538 0C6.76059 0 3.99998 2.76061 3.99998 6.15384C3.99998 8.19581 4.99997 10.0084 6.53569 11.1284C2.71819 12.5892 0 16.2905 0 20.6154C0 22.4817 1.51833 24 3.38461 24H16.923C18.7893 24 20.3077 22.4817 20.3077 20.6154C20.3077 16.2905 17.5895 12.5892 13.772 11.1284ZM5.84616 6.15384C5.84616 3.77859 7.77858 1.84617 10.1538 1.84617C12.5291 1.84617 14.4615 3.77859 14.4615 6.15384C14.4615 8.52909 12.5291 10.4616 10.1538 10.4616C7.77858 10.4616 5.84616 8.52909 5.84616 6.15384ZM16.923 22.1538H3.38461C2.53631 22.1538 1.84617 21.4637 1.84617 20.6153C1.84617 16.0344 5.57292 12.3076 10.1539 12.3076C14.7348 12.3076 18.4616 16.0344 18.4616 20.6153C18.4615 21.4637 17.7714 22.1538 16.923 22.1538Z" fill="#555555"/>
</svg>
