<svg width="150" height="26" viewBox="0 0 150 26" fill="none" xmlns="http://www.w3.org/2000/svg">
<path d="M41.3367 22.9941C41.1767 22.9941 41.0407 22.9381 40.9287 22.8261C40.8167 22.7141 40.7607 22.5781 40.7607 22.4181V6.79414C40.7607 6.61814 40.8167 6.47414 40.9287 6.36214C41.0407 6.25014 41.1767 6.19414 41.3367 6.19414H51.7527C51.9287 6.19414 52.0727 6.25014 52.1847 6.36214C52.2967 6.47414 52.3527 6.61814 52.3527 6.79414V8.47414C52.3527 8.65014 52.2967 8.79414 52.1847 8.90614C52.0727 9.00214 51.9287 9.05014 51.7527 9.05014H44.0487V13.6101H51.2727C51.4487 13.6101 51.5927 13.6661 51.7047 13.7781C51.8167 13.8901 51.8727 14.0341 51.8727 14.2101V15.8901C51.8727 16.0501 51.8167 16.1861 51.7047 16.2981C51.5927 16.4101 51.4487 16.4661 51.2727 16.4661H44.0487V22.4181C44.0487 22.5781 43.9927 22.7141 43.8807 22.8261C43.7687 22.9381 43.6247 22.9941 43.4487 22.9941H41.3367ZM57.9014 23.2341C57.0694 23.2341 56.3174 23.0741 55.6454 22.7541C54.9734 22.4181 54.4374 21.9781 54.0374 21.4341C53.6534 20.8741 53.4614 20.2501 53.4614 19.5621C53.4614 18.4421 53.9094 17.5541 54.8054 16.8981C55.7174 16.2261 56.9174 15.7781 58.4054 15.5541L61.6934 15.0741V14.5701C61.6934 13.8981 61.5254 13.3781 61.1894 13.0101C60.8534 12.6421 60.2774 12.4581 59.4614 12.4581C58.8854 12.4581 58.4134 12.5781 58.0454 12.8181C57.6934 13.0421 57.4294 13.3461 57.2534 13.7301C57.1254 13.9381 56.9414 14.0421 56.7014 14.0421H54.8054C54.6294 14.0421 54.4934 13.9941 54.3974 13.8981C54.3174 13.8021 54.2774 13.6741 54.2774 13.5141C54.2934 13.2581 54.3974 12.9461 54.5894 12.5781C54.7814 12.2101 55.0854 11.8581 55.5014 11.5221C55.9174 11.1701 56.4534 10.8741 57.1094 10.6341C57.7654 10.3941 58.5574 10.2741 59.4854 10.2741C60.4934 10.2741 61.3414 10.4021 62.0294 10.6581C62.7334 10.8981 63.2934 11.2261 63.7094 11.6421C64.1254 12.0581 64.4294 12.5461 64.6214 13.1061C64.8134 13.6661 64.9094 14.2581 64.9094 14.8821V22.4181C64.9094 22.5781 64.8534 22.7141 64.7414 22.8261C64.6294 22.9381 64.4934 22.9941 64.3334 22.9941H62.3894C62.2134 22.9941 62.0694 22.9381 61.9574 22.8261C61.8614 22.7141 61.8134 22.5781 61.8134 22.4181V21.4821C61.6054 21.7861 61.3254 22.0741 60.9734 22.3461C60.6214 22.6021 60.1894 22.8181 59.6774 22.9941C59.1814 23.1541 58.5894 23.2341 57.9014 23.2341ZM58.7174 20.9541C59.2774 20.9541 59.7814 20.8341 60.2294 20.5941C60.6934 20.3541 61.0534 19.9861 61.3094 19.4901C61.5814 18.9781 61.7174 18.3381 61.7174 17.5701V17.0661L59.3174 17.4501C58.3734 17.5941 57.6694 17.8261 57.2054 18.1461C56.7414 18.4661 56.5094 18.8581 56.5094 19.3221C56.5094 19.6741 56.6134 19.9781 56.8214 20.2341C57.0454 20.4741 57.3254 20.6581 57.6614 20.7861C57.9974 20.8981 58.3494 20.9541 58.7174 20.9541ZM68.5883 22.9941C68.4283 22.9941 68.2923 22.9381 68.1803 22.8261C68.0683 22.7141 68.0123 22.5781 68.0123 22.4181V6.53014C68.0123 6.37014 68.0683 6.23414 68.1803 6.12214C68.2923 6.01014 68.4283 5.95414 68.5883 5.95414H70.5803C70.7403 5.95414 70.8763 6.01014 70.9883 6.12214C71.1003 6.23414 71.1563 6.37014 71.1563 6.53014V22.4181C71.1563 22.5781 71.1003 22.7141 70.9883 22.8261C70.8763 22.9381 70.7403 22.9941 70.5803 22.9941H68.5883ZM79.7399 23.2341C78.5879 23.2341 77.5719 23.0181 76.6919 22.5861C75.8279 22.1541 75.1479 21.5301 74.6519 20.7141C74.1719 19.8821 73.9079 18.8821 73.8599 17.7141C73.8439 17.4741 73.8359 17.1621 73.8359 16.7781C73.8359 16.3781 73.8439 16.0501 73.8599 15.7941C73.9079 14.6261 74.1719 13.6341 74.6519 12.8181C75.1479 11.9861 75.8279 11.3541 76.6919 10.9221C77.5719 10.4901 78.5879 10.2741 79.7399 10.2741C80.7639 10.2741 81.6359 10.4181 82.3559 10.7061C83.0759 10.9941 83.6679 11.3541 84.1319 11.7861C84.5959 12.2181 84.9399 12.6741 85.1639 13.1541C85.4039 13.6181 85.5319 14.0421 85.5479 14.4261C85.5639 14.6021 85.5079 14.7461 85.3799 14.8581C85.2679 14.9541 85.1319 15.0021 84.9719 15.0021H82.8599C82.6999 15.0021 82.5719 14.9621 82.4759 14.8821C82.3959 14.8021 82.3159 14.6821 82.2359 14.5221C81.9959 13.8821 81.6759 13.4341 81.2759 13.1781C80.8919 12.9061 80.3959 12.7701 79.7879 12.7701C78.9879 12.7701 78.3479 13.0261 77.8679 13.5381C77.4039 14.0341 77.1559 14.8261 77.1239 15.9141C77.0919 16.5221 77.0919 17.0821 77.1239 17.5941C77.1559 18.6981 77.4039 19.4981 77.8679 19.9941C78.3479 20.4901 78.9879 20.7381 79.7879 20.7381C80.4119 20.7381 80.9159 20.6101 81.2999 20.3541C81.6839 20.0821 81.9959 19.6261 82.2359 18.9861C82.3159 18.8261 82.3959 18.7061 82.4759 18.6261C82.5719 18.5461 82.6999 18.5061 82.8599 18.5061H84.9719C85.1319 18.5061 85.2679 18.5621 85.3799 18.6741C85.5079 18.7701 85.5639 18.9061 85.5479 19.0821C85.5319 19.3701 85.4519 19.6981 85.3079 20.0661C85.1799 20.4181 84.9639 20.7861 84.6599 21.1701C84.3719 21.5381 84.0039 21.8821 83.5559 22.2021C83.1079 22.5061 82.5639 22.7541 81.9239 22.9461C81.2999 23.1381 80.5719 23.2341 79.7399 23.2341ZM93.5708 23.2341C92.2908 23.2341 91.2108 23.0101 90.3308 22.5621C89.4668 22.1141 88.8028 21.4821 88.3388 20.6661C87.8908 19.8501 87.6348 18.8981 87.5708 17.8101C87.5548 17.5221 87.5468 17.1701 87.5468 16.7541C87.5468 16.3381 87.5548 15.9861 87.5708 15.6981C87.6348 14.5941 87.8988 13.6421 88.3628 12.8421C88.8428 12.0261 89.5148 11.3941 90.3788 10.9461C91.2588 10.4981 92.3228 10.2741 93.5708 10.2741C94.8188 10.2741 95.8748 10.4981 96.7388 10.9461C97.6188 11.3941 98.2908 12.0261 98.7548 12.8421C99.2348 13.6421 99.5068 14.5941 99.5708 15.6981C99.5868 15.9861 99.5948 16.3381 99.5948 16.7541C99.5948 17.1701 99.5868 17.5221 99.5708 17.8101C99.5068 18.8981 99.2428 19.8501 98.7788 20.6661C98.3308 21.4821 97.6668 22.1141 96.7868 22.5621C95.9228 23.0101 94.8508 23.2341 93.5708 23.2341ZM93.5708 20.8581C94.4188 20.8581 95.0748 20.5941 95.5388 20.0661C96.0028 19.5221 96.2588 18.7301 96.3068 17.6901C96.3228 17.4501 96.3308 17.1381 96.3308 16.7541C96.3308 16.3701 96.3228 16.0581 96.3068 15.8181C96.2588 14.7941 96.0028 14.0101 95.5388 13.4661C95.0748 12.9221 94.4188 12.6501 93.5708 12.6501C92.7228 12.6501 92.0668 12.9221 91.6028 13.4661C91.1388 14.0101 90.8828 14.7941 90.8348 15.8181C90.8188 16.0581 90.8108 16.3701 90.8108 16.7541C90.8108 17.1381 90.8188 17.4501 90.8348 17.6901C90.8828 18.7301 91.1388 19.5221 91.6028 20.0661C92.0668 20.5941 92.7228 20.8581 93.5708 20.8581ZM102.83 22.9941C102.67 22.9941 102.534 22.9381 102.422 22.8261C102.31 22.7141 102.254 22.5781 102.254 22.4181V11.0901C102.254 10.9301 102.31 10.7941 102.422 10.6821C102.534 10.5701 102.67 10.5141 102.83 10.5141H104.798C104.958 10.5141 105.094 10.5701 105.206 10.6821C105.318 10.7941 105.374 10.9301 105.374 11.0901V12.0741C105.79 11.5621 106.318 11.1381 106.958 10.8021C107.614 10.4501 108.422 10.2741 109.382 10.2741C110.358 10.2741 111.206 10.4981 111.926 10.9461C112.646 11.3781 113.198 11.9941 113.582 12.7941C113.982 13.5941 114.182 14.5541 114.182 15.6741V22.4181C114.182 22.5781 114.126 22.7141 114.014 22.8261C113.902 22.9381 113.766 22.9941 113.606 22.9941H111.494C111.334 22.9941 111.198 22.9381 111.086 22.8261C110.974 22.7141 110.918 22.5781 110.918 22.4181V15.8181C110.918 14.8901 110.686 14.1621 110.222 13.6341C109.774 13.1061 109.118 12.8421 108.254 12.8421C107.422 12.8421 106.758 13.1061 106.262 13.6341C105.766 14.1621 105.518 14.8901 105.518 15.8181V22.4181C105.518 22.5781 105.462 22.7141 105.35 22.8261C105.238 22.9381 105.102 22.9941 104.942 22.9941H102.83ZM121.958 23.2341C120.998 23.2341 120.174 23.1221 119.486 22.8981C118.814 22.6741 118.262 22.3941 117.83 22.0581C117.398 21.7221 117.078 21.3861 116.87 21.0501C116.662 20.7141 116.55 20.4341 116.534 20.2101C116.518 20.0341 116.566 19.8981 116.678 19.8021C116.806 19.6901 116.942 19.6341 117.086 19.6341H118.982C119.046 19.6341 119.102 19.6421 119.15 19.6581C119.198 19.6741 119.262 19.7221 119.342 19.8021C119.55 19.9781 119.766 20.1621 119.99 20.3541C120.23 20.5461 120.51 20.7141 120.83 20.8581C121.15 20.9861 121.55 21.0501 122.03 21.0501C122.654 21.0501 123.174 20.9301 123.59 20.6901C124.022 20.4341 124.238 20.0741 124.238 19.6101C124.238 19.2741 124.142 19.0021 123.95 18.7941C123.774 18.5861 123.438 18.4021 122.942 18.2421C122.446 18.0661 121.742 17.8821 120.83 17.6901C119.934 17.4821 119.19 17.2181 118.598 16.8981C118.006 16.5781 117.566 16.1781 117.278 15.6981C116.99 15.2181 116.846 14.6581 116.846 14.0181C116.846 13.3941 117.03 12.8021 117.398 12.2421C117.782 11.6661 118.342 11.1941 119.078 10.8261C119.83 10.4581 120.758 10.2741 121.862 10.2741C122.726 10.2741 123.478 10.3861 124.118 10.6101C124.758 10.8181 125.286 11.0821 125.702 11.4021C126.134 11.7221 126.462 12.0501 126.686 12.3861C126.91 12.7061 127.03 12.9861 127.046 13.2261C127.062 13.4021 127.014 13.5461 126.902 13.6581C126.79 13.7541 126.662 13.8021 126.518 13.8021H124.742C124.662 13.8021 124.59 13.7861 124.526 13.7541C124.462 13.7221 124.398 13.6821 124.334 13.6341C124.158 13.4741 123.966 13.3061 123.758 13.1301C123.55 12.9541 123.294 12.8021 122.99 12.6741C122.702 12.5301 122.318 12.4581 121.838 12.4581C121.23 12.4581 120.766 12.5941 120.446 12.8661C120.126 13.1221 119.966 13.4501 119.966 13.8501C119.966 14.1221 120.038 14.3621 120.182 14.5701C120.342 14.7621 120.654 14.9461 121.118 15.1221C121.582 15.2981 122.286 15.4821 123.23 15.6741C124.302 15.8661 125.15 16.1541 125.774 16.5381C126.414 16.9061 126.862 17.3381 127.118 17.8341C127.39 18.3141 127.526 18.8501 127.526 19.4421C127.526 20.1621 127.31 20.8101 126.878 21.3861C126.462 21.9621 125.838 22.4181 125.006 22.7541C124.19 23.0741 123.174 23.2341 121.958 23.2341Z" fill="black"/>
<path d="M12.4071 18.6224L14.9226 13.6919L20.9681 13.6871L23.0672 14.619L24.4748 14.5904L26.7572 16.5687L17.9705 22.6451C17.9705 22.6451 16.6841 20.9333 14.201 20.7022C11.9914 20.4967 7.30376 21.3919 5.979 21.7178C3.34148 22.3666 4.4858 24.8307 4.67148 25.0843C1.45619 23.4197 0.301235 22.5496 0.0324006 21.0685C-0.236434 19.5874 1.25583 18.9332 1.26196 18.6944C1.28772 18.2567 1.3832 17.9291 1.5677 17.56C6.85013 18.4798 8.84404 18.5162 12.4071 18.6224ZM7.69823 16.2965L11.6235 13.291L11.3043 16.3836L9.519 16.8737L7.69823 16.2965ZM14.9287 11.6887V10.6867L18.7417 8.5024C22.5872 7.91747 26.2486 7.55879 30 7.08946L26.2171 13.2571L23.1289 13.2307L14.9287 11.6887ZM1.69801 16.9503C6.03648 13.3847 6.93834 10.7205 7.89042 9.09395C8.3905 8.22021 13.0043 5.67457 20.1779 1.12944V3.4031L29.9644 0L28.0042 5.62462C25.1922 6.9746 21.4822 6.78425 20.1007 7.03706C18.1048 7.24019 10.3509 10.0055 9.51503 11.659C6.64092 16.2006 1.69801 16.9503 1.69801 16.9503Z" fill="#85B839"/>
</svg>
