<svg width="489" height="445" viewBox="0 0 489 445" fill="none" xmlns="http://www.w3.org/2000/svg">
<path d="M405.426 142.846C405.426 142.512 405.648 142.29 405.87 142.178C406.204 142.178 406.426 142.401 406.537 142.735C406.537 142.957 406.315 143.291 406.092 143.291C406.018 143.291 405.981 143.291 405.981 143.291C405.648 143.291 405.426 143.18 405.426 142.846ZM394.868 143.291C394.534 143.291 394.312 142.957 394.312 142.623C394.423 142.401 394.645 142.178 394.979 142.178C395.312 142.178 395.534 142.512 395.423 142.846C395.423 143.068 395.201 143.291 394.868 143.291ZM416.095 139.953C415.984 139.62 416.095 139.286 416.428 139.175C416.65 139.063 416.984 139.175 417.095 139.508C417.206 139.731 417.095 140.065 416.873 140.176C416.799 140.25 416.724 140.287 416.65 140.287C416.428 140.287 416.206 140.065 416.095 139.953ZM384.087 140.065C383.754 139.953 383.643 139.62 383.754 139.397C383.865 139.063 384.199 138.952 384.532 139.063C384.754 139.175 384.865 139.508 384.754 139.842C384.643 140.065 384.532 140.176 384.31 140.176C384.236 140.176 384.162 140.139 384.087 140.065ZM425.541 134.057C425.319 133.835 425.319 133.501 425.541 133.278C425.764 133.056 426.097 133.056 426.319 133.39C426.542 133.612 426.542 133.946 426.319 134.168C426.171 134.243 426.06 134.28 425.986 134.28C425.764 134.28 425.652 134.168 425.541 134.057ZM374.641 133.946C374.419 133.723 374.419 133.39 374.53 133.167C374.752 132.945 375.085 132.945 375.419 133.167C375.641 133.278 375.641 133.723 375.419 133.946C375.271 134.02 375.122 134.057 374.974 134.057C374.826 134.057 374.715 134.02 374.641 133.946ZM432.876 125.825C432.654 125.602 432.543 125.268 432.765 125.046C432.876 124.823 433.21 124.712 433.543 124.823C433.765 125.046 433.877 125.38 433.654 125.602C433.58 125.825 433.432 125.936 433.21 125.936C433.062 125.936 432.95 125.899 432.876 125.825ZM367.306 125.38C367.195 125.157 367.195 124.823 367.528 124.601C367.75 124.49 368.084 124.601 368.306 124.823C368.417 125.046 368.306 125.38 368.084 125.602C368.01 125.676 367.899 125.713 367.75 125.713C367.639 125.713 367.417 125.602 367.306 125.38ZM437.655 115.812C437.322 115.701 437.211 115.367 437.322 115.145C437.322 114.811 437.655 114.7 437.989 114.7C438.211 114.811 438.433 115.145 438.322 115.478C438.322 115.701 438.1 115.812 437.766 115.812C437.766 115.812 437.729 115.812 437.655 115.812ZM362.749 115.145C362.638 114.922 362.749 114.588 363.083 114.477C363.416 114.366 363.749 114.588 363.749 114.811C363.861 115.145 363.749 115.478 363.416 115.59C363.342 115.59 363.268 115.59 363.194 115.59C362.972 115.59 362.749 115.367 362.749 115.145ZM438.878 104.242C438.878 104.02 439.1 103.797 439.433 103.797C439.656 103.797 439.989 104.02 439.989 104.242C439.989 104.576 439.656 104.798 439.433 104.798C439.1 104.798 438.878 104.576 438.878 104.242ZM361.193 104.02C361.193 103.686 361.416 103.463 361.749 103.463C362.082 103.463 362.305 103.686 362.305 104.02C362.305 104.353 362.082 104.576 361.749 104.576C361.416 104.576 361.193 104.353 361.193 104.02ZM437.433 94.0071C437.322 93.6734 437.544 93.3396 437.766 93.3396C438.1 93.2284 438.433 93.3396 438.544 93.6734C438.544 94.0071 438.433 94.2296 438.1 94.3409C438.026 94.3409 437.989 94.3409 437.989 94.3409C437.766 94.3409 437.544 94.2296 437.433 94.0071ZM363.194 93.5621C362.972 93.5621 362.749 93.2284 362.86 92.8946C362.972 92.6721 363.305 92.4496 363.527 92.5609C363.861 92.6721 363.972 92.8946 363.972 93.2284C363.861 93.4509 363.638 93.6734 363.416 93.6734C363.342 93.6734 363.268 93.6363 363.194 93.5621ZM432.987 83.9946C432.876 83.7721 432.876 83.4384 433.21 83.2159C433.432 83.1046 433.765 83.1046 433.988 83.4384C434.099 83.6609 433.988 83.9946 433.765 84.1059C433.691 84.18 433.58 84.2171 433.432 84.2171C433.321 84.2171 433.099 84.1059 432.987 83.9946ZM367.75 83.5496C367.528 83.3271 367.417 82.9934 367.639 82.7709C367.75 82.4371 368.084 82.4371 368.417 82.5484C368.639 82.7709 368.751 83.1046 368.528 83.3271C368.454 83.4754 368.306 83.5496 368.084 83.5496C367.936 83.5496 367.824 83.5496 367.75 83.5496ZM425.986 75.6509C425.764 75.4284 425.652 75.0946 425.875 74.8721C426.097 74.6496 426.43 74.6496 426.653 74.7609C426.875 74.9834 426.986 75.3171 426.764 75.6509C426.616 75.725 426.467 75.7621 426.319 75.7621C426.171 75.7621 426.06 75.725 425.986 75.6509ZM374.974 75.0946C374.752 74.8721 374.752 74.5384 375.085 74.3159C375.308 74.0934 375.641 74.0934 375.863 74.3159C375.975 74.5384 375.975 74.9834 375.752 75.0946C375.678 75.2429 375.567 75.3171 375.419 75.3171C375.271 75.3171 375.122 75.2429 374.974 75.0946ZM416.873 69.6434C416.539 69.5321 416.428 69.1984 416.539 68.8646C416.762 68.6421 416.984 68.5309 417.317 68.6421C417.539 68.7534 417.762 69.0871 417.54 69.3096C417.54 69.5321 417.317 69.6434 417.095 69.6434C417.021 69.6434 416.947 69.6434 416.873 69.6434ZM384.199 68.9759C384.087 68.7534 384.199 68.4196 384.532 68.3084C384.865 68.1971 385.088 68.3084 385.31 68.5309C385.421 68.8646 385.31 69.1984 384.977 69.3096C384.902 69.3096 384.828 69.3096 384.754 69.3096C384.532 69.3096 384.31 69.1984 384.199 68.9759ZM406.426 66.4171C406.092 66.4171 405.87 66.0834 405.981 65.7496C405.981 65.5271 406.315 65.3046 406.537 65.3046C406.87 65.4159 407.093 65.6384 406.982 65.9721C406.982 66.1946 406.759 66.4171 406.537 66.4171C406.463 66.4171 406.426 66.4171 406.426 66.4171ZM394.868 65.8609C394.868 65.5271 395.09 65.3046 395.312 65.1934C395.646 65.1934 395.979 65.4159 395.979 65.7496C395.979 65.9721 395.757 66.3059 395.534 66.3059C395.46 66.3059 395.423 66.3059 395.423 66.3059C395.09 66.3059 394.868 66.0834 394.868 65.8609Z" fill="white"/>
<path d="M318.406 428.647C318.073 428.647 317.85 428.424 317.85 428.09C317.85 427.757 318.184 427.534 318.406 427.534C318.74 427.534 318.962 427.757 318.962 428.09C318.962 428.424 318.74 428.647 318.406 428.647ZM329.075 427.757C328.964 427.423 329.186 427.2 329.52 427.2C329.853 427.2 330.076 427.423 330.187 427.645C330.187 427.979 329.964 428.313 329.631 428.313C329.298 428.313 329.075 428.09 329.075 427.757ZM307.293 427.979C306.959 427.979 306.737 427.645 306.848 427.312C306.848 427.089 307.181 426.867 307.404 426.867C307.737 426.867 307.959 427.2 307.959 427.534C307.848 427.757 307.626 427.979 307.404 427.979C307.33 427.979 307.293 427.979 307.293 427.979ZM340.078 426.533C339.967 426.199 340.189 425.865 340.522 425.865C340.856 425.865 341.078 425.977 341.189 426.31C341.189 426.644 340.967 426.867 340.745 426.978C340.671 426.978 340.633 426.978 340.633 426.978C340.3 426.978 340.078 426.755 340.078 426.533ZM296.29 426.199C295.957 426.088 295.846 425.865 295.846 425.532C295.957 425.198 296.179 424.975 296.512 425.087C296.846 425.198 297.068 425.42 296.957 425.754C296.846 425.977 296.623 426.199 296.401 426.199C296.401 426.199 296.364 426.199 296.29 426.199ZM350.969 424.308C350.858 424.085 351.08 423.752 351.414 423.64C351.636 423.64 351.969 423.752 352.08 424.085C352.08 424.419 351.969 424.642 351.636 424.753C351.562 424.753 351.525 424.753 351.525 424.753C351.303 424.753 350.969 424.642 350.969 424.308ZM285.51 423.195C285.176 423.084 285.065 422.862 285.176 422.528C285.288 422.194 285.621 422.083 285.843 422.194C286.177 422.305 286.288 422.528 286.177 422.862C286.177 423.084 285.954 423.307 285.732 423.307C285.658 423.307 285.584 423.27 285.51 423.195ZM361.638 421.415C361.527 421.082 361.749 420.748 361.972 420.637C362.305 420.525 362.638 420.748 362.75 421.082C362.861 421.304 362.638 421.638 362.416 421.749C362.342 421.749 362.268 421.749 362.194 421.749C361.972 421.749 361.749 421.638 361.638 421.415ZM275.174 419.079C274.841 418.968 274.73 418.634 274.841 418.3C275.063 418.078 275.396 417.967 275.619 418.078C275.952 418.189 276.063 418.523 275.952 418.857C275.841 418.968 275.619 419.079 275.396 419.079C275.322 419.079 275.248 419.079 275.174 419.079ZM372.085 417.633C371.974 417.299 372.196 416.965 372.418 416.854C372.752 416.743 373.085 416.965 373.196 417.188C373.308 417.522 373.085 417.855 372.863 417.967C372.789 417.967 372.715 417.967 372.641 417.967C372.418 417.967 372.196 417.855 372.085 417.633ZM265.394 413.739C265.061 413.628 264.95 413.183 265.172 412.96C265.283 412.738 265.728 412.627 265.95 412.849C266.172 412.96 266.283 413.294 266.061 413.517C265.987 413.739 265.839 413.85 265.616 413.85C265.542 413.85 265.468 413.813 265.394 413.739ZM382.31 413.183C382.198 412.849 382.31 412.515 382.532 412.404C382.865 412.293 383.199 412.404 383.31 412.738C383.421 412.96 383.31 413.294 383.088 413.405C383.013 413.48 382.939 413.517 382.865 413.517C382.643 413.517 382.421 413.405 382.31 413.183ZM392.201 408.065C392.09 407.732 392.09 407.398 392.423 407.287C392.645 407.175 392.979 407.175 393.201 407.509C393.312 407.732 393.201 408.065 392.979 408.288C392.905 408.288 392.793 408.288 392.645 408.288C392.534 408.288 392.312 408.177 392.201 408.065ZM256.281 407.287C255.948 407.064 255.948 406.73 256.17 406.508C256.281 406.285 256.725 406.174 256.948 406.397C257.17 406.619 257.17 406.953 257.059 407.175C256.948 407.287 256.725 407.398 256.614 407.398C256.466 407.398 256.355 407.361 256.281 407.287ZM401.758 402.28C401.536 402.058 401.647 401.724 401.87 401.502C402.092 401.39 402.425 401.39 402.648 401.724C402.759 401.947 402.759 402.28 402.425 402.392C402.351 402.466 402.277 402.503 402.203 402.503C401.981 402.503 401.758 402.392 401.758 402.28ZM247.946 399.833C247.723 399.61 247.723 399.277 247.946 399.054C248.168 398.832 248.501 398.832 248.724 399.054C248.946 399.277 248.946 399.61 248.724 399.833C248.576 399.907 248.427 399.944 248.279 399.944C248.131 399.944 248.02 399.907 247.946 399.833ZM410.872 395.939C410.649 395.717 410.649 395.383 410.983 395.16C411.205 394.938 411.538 395.049 411.761 395.272C411.872 395.494 411.872 395.828 411.65 396.05C411.538 396.162 411.427 396.162 411.316 396.162C411.094 396.162 410.983 396.05 410.872 395.939ZM240.5 391.489C240.277 391.267 240.388 390.933 240.611 390.71C240.833 390.488 241.166 390.488 241.389 390.822C241.5 391.044 241.5 391.378 241.278 391.6C241.203 391.675 241.092 391.712 240.944 391.712C240.722 391.712 240.611 391.6 240.5 391.489ZM419.54 388.93C419.318 388.708 419.318 388.374 419.54 388.152C419.763 388.04 420.207 388.04 420.318 388.263C420.541 388.485 420.541 388.819 420.318 389.042C420.17 389.116 420.059 389.153 419.985 389.153C419.763 389.153 419.614 389.079 419.54 388.93ZM233.943 382.367C233.831 382.144 233.831 381.81 234.165 381.588C234.387 381.477 234.72 381.588 234.943 381.81C235.054 382.033 234.943 382.367 234.72 382.589C234.646 382.663 234.535 382.7 234.387 382.7C234.276 382.7 234.054 382.589 233.943 382.367ZM427.764 381.477C427.542 381.254 427.542 380.92 427.764 380.698C427.987 380.475 428.32 380.475 428.542 380.698C428.765 380.92 428.765 381.254 428.542 381.477C428.394 381.625 428.246 381.699 428.098 381.699C427.95 381.699 427.838 381.625 427.764 381.477ZM435.433 373.467C435.21 373.244 435.21 372.91 435.433 372.688C435.544 372.465 435.988 372.465 436.211 372.688C436.433 372.799 436.433 373.244 436.211 373.467C436.063 373.541 435.914 373.578 435.766 373.578C435.618 373.578 435.507 373.541 435.433 373.467ZM228.386 372.799C228.163 372.465 228.275 372.132 228.608 372.02C228.83 371.909 229.164 372.02 229.275 372.243C229.497 372.465 229.386 372.91 229.053 373.022C228.978 373.022 228.904 373.022 228.83 373.022C228.608 373.022 228.386 372.91 228.386 372.799ZM442.546 364.9C442.323 364.789 442.212 364.344 442.434 364.122C442.657 363.899 442.99 363.899 443.212 364.01C443.435 364.233 443.546 364.567 443.323 364.789C443.175 364.937 443.027 365.012 442.879 365.012C442.731 365.012 442.62 364.975 442.546 364.9ZM223.607 362.675C223.385 362.453 223.607 362.119 223.829 361.897C224.163 361.785 224.496 362.008 224.607 362.23C224.718 362.564 224.607 362.898 224.274 363.009C224.2 363.009 224.126 363.009 224.051 363.009C223.829 363.009 223.607 362.898 223.607 362.675ZM222.94 361.229C222.829 360.895 222.94 360.562 223.273 360.45C223.496 360.339 223.829 360.45 223.94 360.784C224.051 361.007 223.94 361.34 223.607 361.452C223.533 361.526 223.496 361.563 223.496 361.563C223.273 361.563 223.051 361.452 222.94 361.229ZM448.991 355.889C448.769 355.778 448.658 355.333 448.88 355.11C448.991 354.888 449.436 354.777 449.658 354.999C449.881 355.11 449.992 355.444 449.769 355.778C449.658 355.889 449.547 356 449.325 356C449.251 356 449.14 355.963 448.991 355.889ZM219.495 350.549C219.384 350.215 219.606 349.882 219.939 349.882C220.162 349.77 220.495 349.993 220.606 350.215C220.606 350.549 220.495 350.883 220.162 350.883C220.088 350.957 220.051 350.994 220.051 350.994C219.828 350.994 219.606 350.772 219.495 350.549ZM454.771 346.433C454.548 346.21 454.437 345.877 454.548 345.654C454.771 345.432 455.104 345.32 455.326 345.432C455.66 345.543 455.771 345.877 455.548 346.21C455.474 346.359 455.326 346.433 455.104 346.433C455.03 346.433 454.919 346.433 454.771 346.433ZM217.383 339.535C217.383 339.202 217.605 338.979 217.939 338.868C218.161 338.868 218.495 339.09 218.495 339.424C218.606 339.647 218.383 339.98 218.05 339.98C217.976 339.98 217.939 339.98 217.939 339.98C217.717 339.98 217.494 339.869 217.383 339.535ZM459.883 336.532C459.549 336.42 459.438 336.087 459.549 335.753C459.66 335.53 459.994 335.308 460.327 335.53C460.55 335.642 460.661 335.975 460.55 336.198C460.438 336.42 460.327 336.532 460.105 336.532C460.031 336.532 459.957 336.532 459.883 336.532ZM216.272 328.41C216.272 328.188 216.494 327.854 216.828 327.854C217.05 327.854 217.383 328.077 217.383 328.41C217.383 328.633 217.161 328.967 216.828 328.967C216.494 328.967 216.272 328.744 216.272 328.41ZM463.995 326.185C463.773 326.074 463.55 325.74 463.661 325.518C463.773 325.184 464.106 325.073 464.439 325.184C464.662 325.295 464.773 325.518 464.773 325.852C464.662 326.074 464.439 326.185 464.217 326.185C464.143 326.185 464.069 326.185 463.995 326.185ZM215.827 317.285C215.827 316.952 216.05 316.729 216.383 316.729C216.605 316.729 216.939 316.952 216.939 317.285C216.939 317.619 216.716 317.842 216.383 317.842C216.05 317.842 215.827 317.619 215.827 317.285ZM467.329 315.617C466.996 315.505 466.773 315.172 466.884 314.838C466.996 314.615 467.218 314.393 467.551 314.504C467.885 314.615 467.996 314.838 467.996 315.172C467.885 315.394 467.662 315.617 467.44 315.617C467.366 315.617 467.329 315.617 467.329 315.617ZM216.383 306.717C216.05 306.717 215.827 306.494 215.827 306.16C215.827 305.827 216.05 305.604 216.383 305.604C216.716 305.604 216.939 305.827 216.939 306.16C216.939 306.494 216.716 306.717 216.383 306.717ZM469.552 304.714C469.329 304.603 469.107 304.38 469.107 304.047C469.218 303.713 469.441 303.49 469.774 303.602C470.107 303.602 470.33 303.935 470.218 304.269C470.218 304.492 469.996 304.714 469.663 304.714C469.663 304.714 469.626 304.714 469.552 304.714ZM216.716 295.592C216.494 295.592 216.161 295.369 216.272 295.035C216.272 294.702 216.494 294.479 216.828 294.479C217.161 294.479 217.383 294.813 217.383 295.035C217.272 295.369 217.05 295.592 216.828 295.592C216.753 295.592 216.716 295.592 216.716 295.592ZM470.885 293.589C470.552 293.589 470.33 293.367 470.33 293.033C470.33 292.699 470.663 292.477 470.885 292.477C471.219 292.588 471.441 292.81 471.441 293.144C471.441 293.367 471.219 293.589 470.885 293.589ZM217.383 284.467C217.161 284.467 216.939 284.244 216.939 283.91C216.939 283.577 217.161 283.354 217.494 283.354C217.828 283.354 218.05 283.688 218.05 284.022C218.05 284.244 217.717 284.467 217.494 284.467H217.383ZM470.441 282.019C470.441 281.685 470.663 281.463 470.996 281.352C471.33 281.352 471.552 281.685 471.552 281.908C471.552 282.242 471.33 282.464 470.996 282.464C470.663 282.464 470.441 282.242 470.441 282.019ZM218.161 273.342C217.828 273.342 217.605 273.119 217.717 272.785C217.717 272.452 217.939 272.229 218.272 272.229C218.606 272.34 218.828 272.563 218.828 272.897C218.717 273.119 218.495 273.342 218.272 273.342C218.198 273.342 218.161 273.342 218.161 273.342ZM469.663 270.894C469.663 270.672 469.885 270.338 470.107 270.338C470.441 270.227 470.774 270.449 470.774 270.783C470.774 271.117 470.552 271.339 470.218 271.45C469.885 271.45 469.663 271.228 469.663 270.894ZM219.161 262.328C218.828 262.328 218.606 261.994 218.717 261.66C218.717 261.438 218.939 261.215 219.273 261.215C219.606 261.215 219.828 261.549 219.828 261.772C219.717 262.105 219.495 262.328 219.273 262.328C219.198 262.328 219.161 262.328 219.161 262.328ZM467.885 259.992C467.885 259.658 467.996 259.435 468.329 259.324C468.663 259.213 468.885 259.435 468.996 259.769C469.107 260.103 468.885 260.325 468.551 260.437C468.551 260.437 468.514 260.437 468.44 260.437C468.218 260.437 467.996 260.214 467.885 259.992ZM220.273 251.203C219.939 251.203 219.717 250.98 219.828 250.647C219.828 250.313 220.051 250.09 220.384 250.09C220.717 250.202 220.94 250.424 220.94 250.758H220.828C220.828 250.98 220.606 251.203 220.273 251.203ZM465.217 249.2C465.217 248.978 465.328 248.644 465.662 248.533C465.995 248.422 466.218 248.644 466.329 248.867C466.44 249.2 466.218 249.534 465.995 249.645C465.921 249.645 465.847 249.645 465.773 249.645C465.551 249.645 465.328 249.423 465.217 249.2ZM221.384 240.189C221.162 240.189 220.94 239.855 220.94 239.522C220.94 239.299 221.273 239.077 221.495 239.077C221.829 239.077 222.051 239.41 222.051 239.633C222.051 239.967 221.718 240.189 221.495 240.189C221.495 240.189 221.458 240.189 221.384 240.189ZM461.772 238.743C461.661 238.409 461.772 238.075 462.105 237.964C462.328 237.853 462.661 238.075 462.772 238.298C462.883 238.632 462.772 238.965 462.439 239.077C462.365 239.077 462.328 239.077 462.328 239.077C462.105 239.077 461.883 238.965 461.772 238.743ZM222.607 229.064C222.273 229.064 222.051 228.842 222.162 228.508C222.162 228.174 222.384 227.952 222.718 227.952C223.051 228.063 223.273 228.285 223.273 228.619C223.162 228.842 222.94 229.064 222.718 229.064C222.644 229.064 222.607 229.064 222.607 229.064ZM457.438 228.508C457.216 228.285 457.327 227.952 457.66 227.84C457.882 227.618 458.216 227.84 458.438 228.063C458.549 228.285 458.438 228.619 458.105 228.842C458.031 228.842 457.956 228.842 457.882 228.842C457.66 228.842 457.438 228.73 457.438 228.508ZM158.592 221.944C158.592 221.61 158.814 221.388 159.148 221.388C159.481 221.388 159.703 221.722 159.703 221.944C159.703 222.278 159.481 222.5 159.148 222.5C158.814 222.5 158.592 222.278 158.592 221.944ZM169.706 221.833C169.706 221.499 169.928 221.165 170.261 221.165C170.595 221.165 170.817 221.388 170.817 221.722C170.817 222.055 170.595 222.278 170.261 222.278C170.039 222.278 169.706 222.055 169.706 221.833ZM148.034 222.055C147.701 222.055 147.478 221.722 147.478 221.388C147.59 221.165 147.812 220.943 148.145 220.943C148.368 220.943 148.59 221.277 148.59 221.499C148.59 221.833 148.368 222.055 148.034 222.055ZM180.819 220.943C180.708 220.609 180.931 220.275 181.264 220.275C181.597 220.275 181.82 220.498 181.931 220.832C181.931 221.054 181.708 221.388 181.375 221.388C181.042 221.388 180.819 221.165 180.819 220.943ZM136.92 220.832C136.587 220.72 136.476 220.498 136.476 220.164C136.476 219.83 136.809 219.608 137.143 219.719C137.365 219.719 137.587 220.053 137.587 220.387C137.587 220.609 137.254 220.832 137.032 220.832C136.958 220.832 136.92 220.832 136.92 220.832ZM191.822 219.385C191.711 219.052 191.933 218.718 192.266 218.718C192.6 218.607 192.822 218.829 192.933 219.163C192.933 219.497 192.711 219.719 192.489 219.83C192.415 219.83 192.378 219.83 192.378 219.83C192.044 219.83 191.822 219.608 191.822 219.385ZM452.214 218.718C451.992 218.495 452.103 218.162 452.437 218.05C452.659 217.828 452.992 217.939 453.103 218.162C453.326 218.495 453.215 218.829 452.992 218.94C452.844 219.015 452.733 219.052 452.659 219.052C452.437 219.052 452.288 218.94 452.214 218.718ZM126.029 218.829C125.696 218.718 125.473 218.384 125.585 218.162C125.585 217.828 125.918 217.605 126.251 217.717C126.474 217.717 126.696 218.05 126.585 218.384C126.585 218.607 126.363 218.829 126.14 218.829C126.066 218.829 126.029 218.829 126.029 218.829ZM223.829 218.05C223.496 218.05 223.273 217.717 223.273 217.383C223.273 217.16 223.607 216.938 223.94 216.938C224.163 216.938 224.385 217.272 224.385 217.494C224.385 217.828 224.163 218.05 223.829 218.05ZM202.713 217.16C202.602 216.827 202.824 216.493 203.047 216.493C203.38 216.382 203.713 216.604 203.713 216.827C203.825 217.16 203.602 217.494 203.38 217.494C203.306 217.494 203.269 217.494 203.269 217.494C202.935 217.494 202.713 217.383 202.713 217.16ZM115.249 215.937C114.915 215.825 114.693 215.492 114.804 215.158C114.916 214.935 115.249 214.713 115.582 214.824C115.805 214.935 116.027 215.269 115.916 215.492C115.805 215.825 115.582 215.937 115.36 215.937C115.286 215.937 115.249 215.937 115.249 215.937ZM213.382 214.268C213.382 213.934 213.493 213.6 213.827 213.6C214.049 213.489 214.383 213.6 214.494 213.934C214.605 214.268 214.383 214.49 214.16 214.602C214.086 214.602 214.012 214.602 213.938 214.602C213.716 214.602 213.493 214.49 213.382 214.268ZM104.691 212.154C104.469 212.043 104.246 211.709 104.358 211.375C104.469 211.153 104.802 210.93 105.135 211.153C105.358 211.264 105.58 211.487 105.469 211.82C105.358 212.043 105.135 212.154 104.913 212.154C104.839 212.154 104.765 212.154 104.691 212.154ZM224.051 210.819C223.94 210.597 224.051 210.263 224.385 210.152C224.607 210.04 224.941 210.263 225.052 210.485C225.163 210.819 225.052 211.153 224.718 211.264C224.644 211.264 224.57 211.264 224.496 211.264C224.274 211.264 224.051 211.153 224.051 210.819ZM446.213 209.484C445.991 209.262 446.102 208.928 446.324 208.705C446.546 208.483 446.88 208.594 447.102 208.817C447.213 209.039 447.213 209.373 446.991 209.595C446.843 209.67 446.732 209.707 446.658 209.707C446.435 209.707 446.324 209.595 446.213 209.484ZM234.498 207.148C234.387 206.814 234.498 206.48 234.832 206.369C235.054 206.258 235.387 206.48 235.498 206.703C235.61 207.037 235.498 207.37 235.165 207.482C235.091 207.482 235.017 207.482 234.943 207.482C234.72 207.482 234.498 207.37 234.498 207.148ZM94.5775 207.37C94.3553 207.259 94.2441 206.925 94.3553 206.592C94.4664 206.369 94.7998 206.258 95.1332 206.369C95.3555 206.592 95.4666 206.925 95.3555 207.148C95.2444 207.37 95.0221 207.482 94.7998 207.482C94.7257 207.482 94.6516 207.445 94.5775 207.37ZM224.94 206.925C224.607 206.925 224.385 206.703 224.385 206.369C224.496 206.035 224.718 205.813 225.052 205.813C225.385 205.924 225.607 206.147 225.496 206.48C225.496 206.703 225.274 206.925 224.94 206.925ZM244.834 203.032C244.723 202.809 244.834 202.475 245.167 202.364C245.39 202.253 245.723 202.364 245.834 202.698C245.945 202.92 245.834 203.254 245.501 203.365C245.427 203.365 245.353 203.365 245.278 203.365C245.056 203.365 244.945 203.254 244.834 203.032ZM85.0198 201.585C84.7975 201.474 84.6864 201.14 84.9087 200.807C85.0198 200.584 85.3532 200.473 85.6866 200.695C85.9089 200.807 86.02 201.252 85.7978 201.474C85.6866 201.585 85.5755 201.697 85.3532 201.697C85.205 201.697 85.0939 201.66 85.0198 201.585ZM439.323 200.807C439.1 200.584 439.211 200.25 439.434 200.028C439.656 199.805 439.989 199.805 440.212 200.028C440.323 200.25 440.323 200.584 440.1 200.807C440.026 200.955 439.915 201.029 439.767 201.029C439.619 201.029 439.471 200.955 439.323 200.807ZM255.058 198.804C254.947 198.582 255.058 198.248 255.392 198.137C255.614 198.025 255.948 198.137 256.059 198.359C256.281 198.693 256.059 199.027 255.836 199.138C255.762 199.138 255.688 199.138 255.614 199.138C255.392 199.138 255.17 199.027 255.058 198.804ZM226.052 195.912C225.718 195.912 225.496 195.578 225.496 195.244C225.496 195.022 225.83 194.799 226.163 194.799C226.385 194.799 226.608 195.133 226.608 195.355C226.608 195.689 226.385 195.912 226.052 195.912ZM76.24 194.799C75.9066 194.577 75.9066 194.243 76.1289 194.02C76.3512 193.798 76.6846 193.798 76.9069 193.909C77.1291 194.132 77.1291 194.465 77.018 194.688C76.8698 194.836 76.7216 194.91 76.5735 194.91C76.4253 194.91 76.3141 194.873 76.24 194.799ZM265.283 194.465C265.172 194.243 265.283 193.909 265.616 193.798C265.95 193.687 266.172 193.798 266.394 194.02C266.505 194.354 266.283 194.688 266.061 194.799C265.987 194.799 265.913 194.799 265.839 194.799C265.616 194.799 265.394 194.688 265.283 194.465ZM431.654 192.797C431.432 192.574 431.432 192.24 431.654 192.018C431.876 191.795 432.21 191.795 432.432 192.018C432.654 192.24 432.654 192.574 432.432 192.797C432.321 192.908 432.21 192.908 432.099 192.908C431.988 192.908 431.765 192.908 431.654 192.797ZM275.508 190.127C275.396 189.904 275.619 189.57 275.841 189.459C276.174 189.237 276.508 189.459 276.619 189.682C276.73 190.015 276.619 190.349 276.286 190.46C276.211 190.46 276.137 190.46 276.063 190.46C275.841 190.46 275.619 190.349 275.508 190.127ZM68.2382 186.9C68.016 186.678 68.016 186.344 68.2382 186.122C68.4605 185.899 68.905 186.01 69.0162 186.233C69.2385 186.455 69.2385 186.789 69.0162 187.012C68.9421 187.086 68.831 187.123 68.6828 187.123C68.5346 187.123 68.3864 187.049 68.2382 186.9ZM285.843 185.899C285.732 185.565 285.843 185.232 286.177 185.12C286.399 185.009 286.732 185.12 286.843 185.454C286.955 185.677 286.843 186.01 286.51 186.122C286.436 186.196 286.362 186.233 286.288 186.233C286.066 186.233 285.954 186.122 285.843 185.899ZM423.319 185.677C422.986 185.454 422.985 185.12 423.208 184.898C423.319 184.564 423.763 184.564 423.986 184.787C424.208 184.898 424.208 185.232 424.097 185.565C423.949 185.714 423.801 185.788 423.652 185.788C423.504 185.788 423.393 185.751 423.319 185.677ZM226.941 184.787C226.719 184.787 226.496 184.564 226.496 184.23C226.496 183.897 226.719 183.674 227.052 183.674C227.385 183.674 227.608 184.008 227.608 184.342C227.608 184.564 227.274 184.787 227.052 184.787C227.052 184.787 227.015 184.787 226.941 184.787ZM296.179 181.783C296.068 181.449 296.179 181.115 296.512 181.004C296.735 180.893 297.068 181.115 297.179 181.338C297.29 181.672 297.179 182.005 296.846 182.117C296.772 182.117 296.698 182.117 296.623 182.117C296.401 182.117 296.29 182.005 296.179 181.783ZM414.095 179.447C413.872 179.224 413.761 178.89 413.983 178.668C414.095 178.445 414.428 178.334 414.761 178.445C414.984 178.668 415.095 179.002 414.873 179.224C414.798 179.447 414.65 179.558 414.428 179.558C414.354 179.558 414.243 179.521 414.095 179.447ZM61.3478 178.112C61.2366 177.889 61.2366 177.555 61.4589 177.333C61.7923 177.222 62.1257 177.222 62.2369 177.555C62.4591 177.778 62.348 178.112 62.1257 178.223C62.0516 178.297 61.9405 178.334 61.7923 178.334C61.6812 178.334 61.4589 178.334 61.3478 178.112ZM306.626 177.889C306.515 177.555 306.626 177.333 306.959 177.222C307.181 177.11 307.515 177.222 307.626 177.555C307.737 177.778 307.626 178.112 307.293 178.223C307.218 178.223 307.144 178.223 307.07 178.223C306.848 178.223 306.626 178.112 306.626 177.889ZM317.073 174.44C317.073 174.107 317.184 173.773 317.517 173.662C317.739 173.55 318.073 173.773 318.184 174.107C318.295 174.329 318.073 174.663 317.85 174.774C317.776 174.774 317.702 174.774 317.628 174.774C317.406 174.774 317.184 174.663 317.073 174.44ZM404.315 174.329C404.092 174.218 403.981 173.884 404.092 173.662C404.203 173.328 404.537 173.217 404.759 173.328C405.093 173.439 405.204 173.773 405.093 174.107C404.981 174.218 404.759 174.44 404.537 174.44C404.463 174.44 404.389 174.403 404.315 174.329ZM227.83 173.662C227.497 173.662 227.274 173.439 227.274 173.105C227.274 172.772 227.608 172.549 227.941 172.549C228.163 172.66 228.386 172.883 228.386 173.217C228.386 173.439 228.163 173.662 227.83 173.662ZM327.853 171.325C327.742 171.103 327.964 170.769 328.297 170.658C328.52 170.547 328.853 170.769 328.964 171.103C328.964 171.325 328.853 171.659 328.52 171.77C328.445 171.77 328.408 171.77 328.408 171.77C328.186 171.77 327.853 171.548 327.853 171.325ZM394.09 170.435C393.757 170.435 393.534 170.102 393.646 169.768C393.757 169.434 394.09 169.323 394.312 169.434C394.646 169.545 394.868 169.768 394.757 170.102C394.646 170.324 394.423 170.547 394.201 170.547C394.127 170.547 394.09 170.51 394.09 170.435ZM338.633 168.878C338.633 168.544 338.855 168.322 339.078 168.21C339.411 168.21 339.744 168.433 339.744 168.655C339.855 168.989 339.633 169.323 339.3 169.323C339.3 169.323 339.263 169.323 339.189 169.323C338.966 169.323 338.744 169.212 338.633 168.878ZM55.6798 168.544C55.5687 168.21 55.6798 167.877 56.0132 167.765C56.2355 167.654 56.5689 167.765 56.68 167.988C56.7912 168.322 56.68 168.544 56.4578 168.767C56.3837 168.767 56.3096 168.767 56.2355 168.767C56.0132 168.767 55.7909 168.655 55.6798 168.544ZM383.31 167.877C382.976 167.877 382.754 167.543 382.865 167.32C382.865 166.987 383.199 166.764 383.532 166.875C383.754 166.875 383.977 167.209 383.977 167.432C383.866 167.765 383.643 167.988 383.421 167.988C383.347 167.914 383.31 167.877 383.31 167.877ZM349.635 167.098C349.635 166.875 349.858 166.542 350.08 166.542C350.413 166.43 350.747 166.653 350.747 166.987C350.747 167.32 350.525 167.543 350.302 167.654C350.228 167.654 350.191 167.654 350.191 167.654C349.969 167.654 349.635 167.432 349.635 167.098ZM372.307 166.764C372.085 166.653 371.752 166.43 371.863 166.097C371.863 165.874 372.085 165.652 372.418 165.652C372.752 165.652 372.974 165.874 372.974 166.208C372.863 166.542 372.641 166.764 372.418 166.764C372.344 166.764 372.307 166.764 372.307 166.764ZM360.749 166.208C360.638 165.874 360.971 165.652 361.194 165.652C361.527 165.54 361.749 165.874 361.861 166.097C361.861 166.43 361.638 166.653 361.305 166.764C360.971 166.764 360.749 166.43 360.749 166.208ZM228.497 162.648C228.163 162.537 227.941 162.314 227.941 161.98C228.052 161.758 228.275 161.424 228.608 161.535C228.83 161.535 229.164 161.758 229.053 162.092C229.053 162.425 228.83 162.648 228.497 162.648ZM51.3455 158.198C51.2344 157.975 51.3455 157.642 51.6789 157.53C52.0123 157.419 52.2346 157.53 52.3457 157.864C52.4569 158.087 52.3457 158.42 52.0123 158.532C52.0123 158.532 51.9753 158.532 51.9012 158.532C51.6789 158.532 51.4566 158.42 51.3455 158.198ZM228.941 151.523C228.719 151.523 228.497 151.189 228.497 150.967C228.497 150.633 228.719 150.41 229.053 150.41C229.386 150.41 229.608 150.633 229.608 150.967C229.608 151.3 229.275 151.523 229.053 151.523C229.053 151.523 229.016 151.523 228.941 151.523ZM48.2337 147.518C48.1225 147.184 48.3448 146.85 48.6782 146.85C48.9005 146.739 49.2339 146.962 49.2339 147.295C49.345 147.518 49.1228 147.852 48.9005 147.963C48.8264 147.963 48.7894 147.963 48.7894 147.963C48.456 147.963 48.2337 147.74 48.2337 147.518ZM229.164 140.398C228.83 140.398 228.608 140.064 228.608 139.842C228.608 139.508 228.83 139.285 229.164 139.285C229.497 139.285 229.719 139.508 229.719 139.842C229.719 140.064 229.497 140.398 229.164 140.398ZM46.2332 136.504C46.2332 136.17 46.4555 135.948 46.7889 135.837C47.0112 135.837 47.3446 136.059 47.3446 136.393C47.4557 136.615 47.2335 136.949 46.9 136.949C46.9 136.949 46.863 136.949 46.7889 136.949C46.5666 136.949 46.3444 136.727 46.2332 136.504ZM228.497 128.717C228.497 128.383 228.719 128.16 229.053 128.16C229.386 128.16 229.608 128.383 229.608 128.605C229.608 128.939 229.386 129.273 229.053 129.273C228.719 129.273 228.497 128.939 228.497 128.717ZM45.5664 125.379C45.5664 125.045 45.7887 124.823 46.1221 124.823C46.3444 124.823 46.6778 125.045 46.6778 125.379C46.6778 125.602 46.4555 125.935 46.1221 125.935C45.7887 125.935 45.5664 125.602 45.5664 125.379ZM227.941 117.592C227.941 117.258 228.163 117.035 228.497 117.035C228.719 117.035 229.053 117.258 229.053 117.48C229.053 117.814 228.83 118.148 228.497 118.148C228.163 118.148 227.941 117.925 227.941 117.592ZM46.5666 114.81C46.2332 114.699 46.011 114.477 46.011 114.143C46.1221 113.809 46.3444 113.698 46.6778 113.698C47.0112 113.698 47.2335 114.032 47.1223 114.254C47.1223 114.588 46.9 114.81 46.5666 114.81ZM226.941 106.578C226.941 106.244 227.163 106.022 227.386 105.91C227.719 105.91 227.941 106.133 228.052 106.467C228.052 106.689 227.83 107.023 227.497 107.023C227.163 107.023 226.941 106.8 226.941 106.578ZM48.2337 103.797C47.9003 103.685 47.678 103.463 47.7891 103.129C47.7891 102.795 48.1225 102.684 48.456 102.684C48.6782 102.795 48.9005 103.018 48.9005 103.352C48.7894 103.574 48.5671 103.797 48.3448 103.797C48.2707 103.797 48.2337 103.797 48.2337 103.797ZM225.274 95.5641C225.274 95.2304 225.496 95.0079 225.718 94.8966C226.052 94.8966 226.385 95.1191 226.385 95.3416C226.496 95.6754 226.274 96.0091 225.941 96.0091C225.941 96.0091 225.904 96.0091 225.83 96.0091C225.607 96.0091 225.385 95.8979 225.274 95.5641ZM51.0121 93.0054C50.7898 93.0054 50.5675 92.6716 50.6787 92.3379C50.7898 92.0041 51.1232 91.8929 51.3455 92.0041C51.6789 92.1154 51.9012 92.4491 51.79 92.6716C51.6789 92.8941 51.4566 93.1166 51.2344 93.1166C51.1603 93.1166 51.0862 93.0796 51.0121 93.0054ZM222.94 84.7729C222.94 84.4391 223.051 84.1054 223.385 84.1054C223.718 83.9941 223.94 84.2166 224.051 84.4391C224.163 84.7729 223.94 85.1066 223.607 85.1066C223.607 85.1066 223.57 85.1437 223.496 85.2179C223.273 85.2179 223.051 84.9954 222.94 84.7729ZM55.013 82.6591C54.7907 82.5479 54.6796 82.2141 54.7907 81.9916C54.9019 81.6579 55.2353 81.5466 55.4575 81.6579C55.791 81.7691 55.9021 82.1029 55.791 82.4366C55.6798 82.6591 55.4575 82.7704 55.2353 82.7704C55.1612 82.7704 55.0871 82.7333 55.013 82.6591ZM219.717 74.2041C219.606 73.8704 219.828 73.5366 220.051 73.4254C220.384 73.3141 220.717 73.5366 220.828 73.7591C220.94 74.0929 220.717 74.4266 220.495 74.5379C220.421 74.5379 220.347 74.5379 220.273 74.5379C220.05 74.5379 219.828 74.4266 219.717 74.2041ZM60.1253 72.7579C59.903 72.6466 59.7919 72.3129 59.903 71.9791C60.1253 71.7566 60.4587 71.6454 60.681 71.8679C60.9032 71.9791 61.0144 72.3129 60.9032 72.6466C60.755 72.795 60.5698 72.8691 60.3475 72.8691C60.2735 72.8691 60.1994 72.8321 60.1253 72.7579ZM215.494 63.9691C215.272 63.7466 215.494 63.4129 215.716 63.1904C215.938 63.0791 216.272 63.1904 216.494 63.5241C216.605 63.7466 216.494 64.0804 216.161 64.1916C216.087 64.2658 216.013 64.3029 215.938 64.3029C215.716 64.3029 215.605 64.1916 215.494 63.9691ZM66.2378 63.5241C66.0155 63.3016 65.9044 62.9679 66.1266 62.7454C66.3489 62.5229 66.6823 62.4116 66.9046 62.6341C67.1269 62.7454 67.238 63.1904 67.0157 63.4129C66.9046 63.5241 66.6823 63.6354 66.5712 63.6354C66.423 63.6354 66.3119 63.5983 66.2378 63.5241ZM73.3505 54.9579C73.0171 54.7354 73.0171 54.4016 73.2394 54.1791C73.4616 53.9566 73.795 53.9566 74.0173 54.0679C74.2396 54.2904 74.2396 54.6241 74.1284 54.9579C73.9803 55.0321 73.8321 55.0691 73.6839 55.0691C73.5357 55.0691 73.4246 55.0321 73.3505 54.9579ZM209.937 54.4016C209.715 54.1791 209.826 53.8454 210.048 53.6229C210.382 53.5116 210.715 53.5116 210.826 53.8454C211.048 54.0679 210.937 54.4016 210.715 54.6241C210.641 54.6983 210.53 54.7354 210.382 54.7354C210.233 54.7354 210.085 54.6241 209.937 54.4016ZM81.2412 47.1704C81.0189 46.9479 81.13 46.6141 81.3523 46.3916C81.5746 46.1691 81.908 46.1691 82.1303 46.5029C82.3525 46.7254 82.2414 47.0591 82.0191 47.2816C81.945 47.3558 81.8339 47.3929 81.6857 47.3929C81.5746 47.3929 81.3523 47.2816 81.2412 47.1704ZM203.047 45.8354C202.824 45.6129 202.824 45.2791 203.047 45.0566C203.269 44.8341 203.602 44.8341 203.825 45.0566C204.047 45.2791 204.047 45.6129 203.825 45.8354C203.676 45.9837 203.565 46.0579 203.491 46.0579C203.343 46.0579 203.195 45.9837 203.047 45.8354ZM90.021 40.3841C89.7987 40.0504 89.9098 39.7166 90.1321 39.6054C90.4655 39.3829 90.7989 39.4941 90.91 39.7166C91.1323 39.9391 91.0212 40.2729 90.7989 40.4954C90.6507 40.5696 90.5396 40.6066 90.4655 40.6066C90.3544 40.6066 90.1321 40.4954 90.021 40.3841ZM194.823 38.6041C194.6 38.3816 194.489 38.0479 194.711 37.8254C194.934 37.4916 195.267 37.4916 195.489 37.7141C195.712 37.8254 195.823 38.1591 195.6 38.4929C195.452 38.5671 195.304 38.6412 195.156 38.7154C195.082 38.7154 194.971 38.6783 194.823 38.6041ZM99.4675 34.5991C99.3564 34.2654 99.4675 33.9316 99.6898 33.8204C100.023 33.7091 100.357 33.7091 100.468 34.0429C100.579 34.2654 100.468 34.5991 100.245 34.8216C100.171 34.8216 100.097 34.8216 100.023 34.8216C99.801 34.8216 99.5787 34.7104 99.4675 34.5991ZM185.487 32.8191C185.265 32.5966 185.043 32.2629 185.265 32.0404C185.376 31.7066 185.709 31.5954 186.043 31.8179C186.265 31.9291 186.376 32.2629 186.265 32.4854C186.154 32.7079 185.932 32.8191 185.709 32.8191C185.635 32.8191 185.561 32.8191 185.487 32.8191ZM109.581 29.9266C109.47 29.5929 109.581 29.2591 109.914 29.1479C110.137 29.0366 110.47 29.2591 110.581 29.4816C110.692 29.8154 110.581 30.1491 110.248 30.2604C110.248 30.2604 110.211 30.2604 110.137 30.2604C109.914 30.2604 109.692 30.1491 109.581 29.9266ZM175.263 28.5916C175.04 28.4804 174.818 28.1466 174.929 27.8129C175.04 27.5904 175.374 27.3679 175.707 27.4791C175.929 27.5904 176.152 27.9241 176.04 28.2579C175.892 28.4804 175.707 28.5916 175.485 28.5916C175.411 28.5916 175.337 28.5916 175.263 28.5916ZM120.139 26.4779C120.028 26.1441 120.25 25.8104 120.583 25.8104C120.806 25.6991 121.139 25.9216 121.25 26.1441C121.25 26.4779 121.139 26.8116 120.806 26.8116C120.806 26.8116 120.769 26.8116 120.695 26.8116C120.472 26.8116 120.25 26.7004 120.139 26.4779ZM164.593 25.8104C164.371 25.8104 164.149 25.4766 164.149 25.1429C164.26 24.9204 164.593 24.6979 164.816 24.6979C165.149 24.8091 165.371 25.0316 165.26 25.3654C165.26 25.6991 165.038 25.8104 164.705 25.8104C164.705 25.8104 164.668 25.8104 164.593 25.8104ZM131.03 24.2529C131.03 23.9191 131.253 23.6966 131.475 23.6966C131.808 23.5854 132.142 23.8079 132.142 24.1416C132.142 24.4754 131.919 24.6979 131.697 24.8091C131.623 24.8091 131.586 24.8091 131.586 24.8091C131.253 24.8091 131.03 24.5866 131.03 24.2529ZM153.702 24.3641C153.369 24.3641 153.146 24.0304 153.146 23.6966C153.258 23.4741 153.48 23.2516 153.813 23.2516C154.147 23.2516 154.369 23.5854 154.258 23.8079C154.258 24.1416 154.035 24.3641 153.702 24.3641ZM142.144 23.3629C142.144 23.1404 142.366 22.8066 142.7 22.8066C142.922 22.8066 143.255 23.0291 143.255 23.3629C143.255 23.6966 142.922 23.9191 142.7 23.9191C142.366 23.9191 142.144 23.6966 142.144 23.3629Z" fill="white"/>
<path d="M327.075 382.256H181.486C170.817 382.256 162.26 373.578 162.26 363.009V67.3068C162.26 56.6268 170.817 48.0605 181.486 48.0605H327.075C337.744 48.0605 346.302 56.6268 346.302 67.3068V363.009C346.302 373.578 337.744 382.256 327.075 382.256Z" fill="url(#paint0_linear_1_2308)"/>
<path d="M334.076 350.438H174.484V63.5244H334.076V350.438Z" fill="url(#paint1_linear_1_2308)"/>
<path d="M272.508 370.575H236.055C234.277 370.575 232.832 369.128 232.832 367.46C232.832 365.68 234.277 364.233 236.055 364.233H272.508C274.286 364.233 275.731 365.68 275.731 367.46C275.731 369.128 274.286 370.575 272.508 370.575Z" fill="url(#paint2_linear_1_2308)"/>
<path d="M306.182 269.559H204.603C197.49 269.559 191.822 263.886 191.822 256.766V137.394C191.822 130.274 197.49 124.601 204.603 124.601H306.182C313.294 124.601 319.073 130.274 319.073 137.394V256.766C319.073 263.886 313.294 269.559 306.182 269.559Z" fill="url(#paint3_linear_1_2308)"/>
<path d="M306.182 124.601H204.603C197.49 124.601 191.822 130.274 191.822 137.394V155.973H319.073V137.394C319.073 130.274 313.294 124.601 306.182 124.601Z" fill="url(#paint4_linear_1_2308)"/>
<path fill-rule="evenodd" clip-rule="evenodd" d="M255.392 311.501C246.945 311.501 240.055 304.603 240.055 296.148C240.055 287.693 246.945 280.796 255.392 280.796C263.838 280.796 270.728 287.693 270.728 296.148C270.728 304.603 263.838 311.501 255.392 311.501ZM255.392 281.908C247.612 281.908 241.166 288.361 241.166 296.148C241.166 304.047 247.612 310.388 255.392 310.388C263.282 310.388 269.617 304.047 269.617 296.148C269.617 288.361 263.282 281.908 255.392 281.908Z" fill="url(#paint5_linear_1_2308)"/>
<path d="M255.391 292.477C246.278 282.798 240.943 297.483 255.391 305.716C269.95 297.483 264.615 282.798 255.391 292.477Z" fill="url(#paint6_linear_1_2308)"/>
<path d="M227.609 172.549L212.494 184.675L223.052 195.133L227.609 192.796V172.549Z" fill="url(#paint7_linear_1_2308)"/>
<path d="M283.178 172.549L298.403 184.675L287.845 195.133L283.178 192.796V172.549Z" fill="url(#paint8_linear_1_2308)"/>
<path d="M264.396 172.549C265.618 178.668 260.617 183.006 255.949 183.006C255.727 183.006 255.542 183.006 255.393 183.006C255.245 183.006 255.097 183.006 254.949 183.006C250.17 183.006 245.169 178.668 246.503 172.549H227.609V240.078H255.393H283.178V172.549H264.396Z" fill="url(#paint9_linear_1_2308)"/>
<path fill-rule="evenodd" clip-rule="evenodd" d="M400.759 133.5L451.548 184.341C455.327 188.013 455.327 194.02 451.548 197.803L431.766 217.716C427.987 221.388 421.986 221.388 418.207 217.716L367.418 166.875C365.417 164.761 364.417 161.98 364.751 159.199L367.085 135.169C367.196 134.056 367.974 133.166 369.085 133.055L393.09 130.719C395.98 130.385 398.758 131.498 400.759 133.5ZM380.865 140.509C379.087 138.729 376.198 138.729 374.42 140.509C372.641 142.178 372.641 145.07 374.42 146.85C376.198 148.63 379.087 148.63 380.865 146.85C382.644 145.07 382.644 142.178 380.865 140.509Z" fill="url(#paint10_linear_1_2308)"/>
<path fill-rule="evenodd" clip-rule="evenodd" d="M406.427 168.099C406.427 172.549 403.87 175.219 399.87 175.219C395.869 175.219 393.312 172.549 393.312 168.099C393.312 163.76 395.869 160.979 399.87 160.979C403.87 160.979 406.427 163.76 406.427 168.099ZM397.091 168.099C397.091 170.546 398.202 171.992 399.87 171.992C401.648 171.992 402.648 170.546 402.648 168.099C402.648 165.762 401.648 164.316 399.87 164.316C398.202 164.316 397.091 165.762 397.091 168.099ZM420.652 161.09L403.87 184.675H398.314L414.984 161.09H420.652ZM425.764 177.666C425.764 182.005 423.208 184.786 419.207 184.786C415.206 184.786 412.65 182.005 412.65 177.666C412.65 173.216 415.206 170.546 419.207 170.546C423.208 170.546 425.764 173.216 425.764 177.666ZM416.429 177.666C416.429 180.002 417.429 181.56 419.207 181.56C420.985 181.56 421.986 180.002 421.986 177.666C421.986 175.219 420.985 173.772 419.207 173.772C417.429 173.772 416.429 175.219 416.429 177.666Z" fill="url(#paint11_linear_1_2308)"/>
<path d="M140.81 276.123L78.7962 326.186C77.018 327.521 74.573 327.298 73.2393 325.629L43.3437 288.472C42.01 286.803 42.2323 284.355 44.0105 283.02L106.025 232.958C107.692 231.623 110.137 231.845 111.47 233.514L141.366 270.672C142.7 272.341 142.477 274.788 140.81 276.123Z" fill="url(#paint12_linear_1_2308)"/>
<path d="M47.6777 293.812L56.6798 305.048L124.806 250.091L115.804 238.854L47.6777 293.812Z" fill="url(#paint13_linear_1_2308)"/>
<path d="M124.808 261.327L98.8016 282.353L97.0234 280.128L123.029 259.213L124.808 261.327Z" fill="url(#paint14_linear_1_2308)"/>
<path d="M129.03 266.555L103.024 287.47L101.246 285.356L127.252 264.33L129.03 266.555Z" fill="url(#paint15_linear_1_2308)"/>
<path d="M133.142 271.785L107.136 292.7L105.469 290.586L131.475 269.56L133.142 271.785Z" fill="url(#paint16_linear_1_2308)"/>
<path d="M84.1307 301.488C87.0203 305.16 86.4646 310.388 82.7971 313.392C79.2407 316.285 73.9062 315.728 70.9055 312.057C68.0159 308.497 68.5716 303.157 72.2391 300.265C75.9066 297.261 81.13 297.817 84.1307 301.488Z" fill="url(#paint17_linear_1_2308)"/>
<path d="M418.206 415.853H307.403C302.513 415.853 299.068 411.959 299.623 407.176L312.737 289.918C313.071 287.026 316.405 284.689 320.183 284.689H405.536C409.204 284.689 412.538 287.026 412.871 289.918L426.096 407.176C426.652 411.959 423.096 415.853 418.206 415.853Z" fill="url(#paint18_linear_1_2308)"/>
<path d="M388.532 407.176L375.307 289.918C374.974 287.026 371.751 284.689 367.972 284.689H320.183C316.405 284.689 313.071 287.026 312.737 289.918L299.623 407.176C299.068 411.959 302.513 415.853 307.403 415.853H380.753C385.532 415.853 389.088 411.959 388.532 407.176Z" fill="url(#paint19_linear_1_2308)"/>
<path d="M380.308 288.472L377.974 270.894C376.863 262.106 369.194 255.431 360.415 255.431C351.524 255.431 343.855 262.106 342.744 270.894L340.41 288.472C339.076 288.694 338.076 289.918 338.076 291.253C338.076 292.922 339.299 294.257 340.966 294.257C342.522 294.257 343.855 292.922 343.855 291.253C343.855 290.252 343.3 289.362 342.522 288.917L344.855 271.228C345.967 263.552 352.524 257.656 360.415 257.656C368.194 257.656 374.751 263.552 375.863 271.228L378.196 288.917C377.418 289.362 376.863 290.252 376.863 291.253C376.863 292.922 378.196 294.257 379.752 294.257C381.419 294.257 382.642 292.922 382.642 291.253C382.642 289.918 381.642 288.694 380.308 288.472Z" fill="url(#paint20_linear_1_2308)"/>
<path d="M352.413 32.1514H287.176C279.841 32.1514 273.951 38.0476 273.951 45.3901V69.5314C273.951 76.8739 279.841 82.7701 287.176 82.7701H300.291L313.516 96.0089V82.7701H352.413C359.748 82.7701 365.639 76.8739 365.639 69.5314V45.3901C365.639 38.0476 359.748 32.1514 352.413 32.1514Z" fill="url(#paint21_linear_1_2308)"/>
<path d="M306.07 55.4022C306.07 57.0709 304.736 58.5172 303.069 58.5172C301.402 58.5172 299.957 57.0709 299.957 55.4022C299.957 53.7334 301.402 52.3984 303.069 52.3984C304.736 52.3984 306.07 53.7334 306.07 55.4022Z" fill="url(#paint22_linear_1_2308)"/>
<path d="M317.294 55.4022C317.294 57.0709 315.961 58.5172 314.182 58.5172C312.515 58.5172 311.182 57.0709 311.182 55.4022C311.182 53.7334 312.515 52.3984 314.182 52.3984C315.961 52.3984 317.294 53.7334 317.294 55.4022Z" fill="url(#paint23_linear_1_2308)"/>
<path d="M328.519 55.4022C328.519 57.0709 327.074 58.5172 325.407 58.5172C323.74 58.5172 322.295 57.0709 322.295 55.4022C322.295 53.7334 323.74 52.3984 325.407 52.3984C327.074 52.3984 328.519 53.7334 328.519 55.4022Z" fill="url(#paint24_linear_1_2308)"/>
<path d="M339.632 55.4022C339.632 57.0709 338.298 58.5172 336.52 58.5172C334.853 58.5172 333.52 57.0709 333.52 55.4022C333.52 53.7334 334.853 52.3984 336.52 52.3984C338.298 52.3984 339.632 53.7334 339.632 55.4022Z" fill="url(#paint25_linear_1_2308)"/>
<path d="M131.697 165.874C131.697 184.008 116.916 198.804 98.8009 198.804C80.6856 198.804 66.0156 184.008 66.0156 165.874C66.0156 147.741 80.6856 133.056 98.8009 133.056C116.916 133.056 131.697 147.741 131.697 165.874Z" fill="url(#paint26_linear_1_2308)"/>
<path d="M127.252 165.875C127.252 181.561 114.471 194.355 98.8007 194.355C83.1305 194.355 70.4609 181.561 70.4609 165.875C70.4609 150.188 83.1305 137.506 98.8007 137.506C114.471 137.506 127.252 150.188 127.252 165.875Z" fill="url(#paint27_linear_1_2308)"/>
<path d="M101.913 179.113V184.787H96.9114V179.002C93.3551 178.557 90.021 177.111 87.4648 174.997L90.1321 169.657C92.7994 171.993 96.9114 173.662 99.6898 173.662C101.69 173.662 103.024 172.883 103.024 171.437C103.024 166.987 89.1319 169.768 89.1319 160.423C89.1319 156.196 92.1326 153.303 96.9114 152.524V146.962H101.913V152.524C105.024 152.858 107.914 153.859 110.137 155.306L107.581 160.757C104.802 159.199 101.246 157.976 99.1342 157.976C97.4671 157.976 96.3558 158.532 96.3558 159.756C96.3558 164.094 110.248 161.647 110.248 171.103C110.248 175.776 106.691 178.446 101.913 179.113Z" fill="url(#paint28_linear_1_2308)"/>
<path d="M175.374 121.485C175.374 136.949 162.816 149.52 147.368 149.52C131.92 149.52 119.361 136.949 119.361 121.485C119.361 106.021 131.92 93.4502 147.368 93.4502C162.816 93.4502 175.374 106.021 175.374 121.485Z" fill="url(#paint29_linear_1_2308)"/>
<path d="M171.596 121.485C171.596 134.835 160.816 145.737 147.368 145.737C134.032 145.737 123.141 134.835 123.141 121.485C123.141 108.024 134.032 97.2324 147.368 97.2324C160.816 97.2324 171.596 108.024 171.596 121.485Z" fill="url(#paint30_linear_1_2308)"/>
<path d="M150.035 132.721V137.616H145.812V132.721C142.7 132.276 139.811 131.052 137.699 129.272L139.922 124.6C142.256 126.602 145.812 128.049 148.146 128.049C149.813 128.049 150.924 127.381 150.924 126.157C150.924 122.375 139.144 124.711 139.144 116.701C139.144 113.141 141.7 110.694 145.812 110.026V105.354H150.035V110.026C152.703 110.249 155.148 111.139 157.037 112.362L154.814 117.035C152.48 115.7 149.48 114.699 147.59 114.699C146.146 114.699 145.256 115.144 145.256 116.145C145.256 119.927 157.148 117.814 157.148 125.935C157.148 129.829 154.036 132.165 150.035 132.721Z" fill="url(#paint31_linear_1_2308)"/>
<path d="M104.469 104.575L105.803 113.141L114.36 114.476L105.803 115.811L104.469 124.378L103.024 115.811L94.4668 114.476L103.024 113.141L104.469 104.575Z" fill="url(#paint32_linear_1_2308)"/>
<path d="M87.2427 81.8809L88.7986 91.3371L98.2452 92.8946L88.7986 94.4521L87.2427 104.02L85.6868 94.4521L76.2402 92.8946L85.6868 91.3371L87.2427 81.8809Z" fill="url(#paint33_linear_1_2308)"/>
<path d="M143.7 187.901L145.256 197.358L154.813 198.915L145.256 200.473L143.7 209.929L142.144 200.473L132.697 198.915L142.144 197.358L143.7 187.901Z" fill="url(#paint34_linear_1_2308)"/>
<path d="M389.979 87.665L391.424 97.2325L400.981 98.6788L391.424 100.236L389.979 109.804L388.423 100.236L378.865 98.6788L388.423 97.2325L389.979 87.665Z" fill="url(#paint35_linear_1_2308)"/>
<path d="M369.195 191.906L369.973 196.579L374.752 197.357L369.973 198.136L369.195 202.92L368.418 198.136L363.639 197.357L368.418 196.579L369.195 191.906Z" fill="url(#paint36_linear_1_2308)"/>
<path d="M392.535 218.718L393.758 226.617L401.648 227.84L393.758 229.064L392.535 236.963L391.313 229.064L383.422 227.84L391.313 226.617L392.535 218.718Z" fill="url(#paint37_linear_1_2308)"/>
<path d="M130.92 332.749L132.254 340.537L140.033 341.872L132.254 343.095L130.92 350.883L129.698 343.095L121.918 341.872L129.698 340.537L130.92 332.749Z" fill="url(#paint38_linear_1_2308)"/>
<path d="M132.475 408.287C132.475 407.954 132.697 407.731 132.919 407.731C133.253 407.731 133.586 407.954 133.586 408.287C133.586 408.621 133.364 408.844 133.031 408.844C132.697 408.844 132.475 408.621 132.475 408.287ZM122.028 406.396C121.695 406.285 121.584 405.951 121.806 405.618C121.917 405.395 122.25 405.284 122.473 405.395C122.806 405.506 122.917 405.84 122.806 406.174C122.658 406.396 122.473 406.507 122.25 406.507C122.176 406.507 122.102 406.47 122.028 406.396ZM143.033 405.395C142.922 405.172 142.922 404.839 143.255 404.616C143.477 404.505 143.811 404.616 144.033 404.839C144.144 405.061 144.033 405.395 143.811 405.618C143.737 405.692 143.626 405.729 143.477 405.729C143.366 405.729 143.144 405.617 143.033 405.395ZM113.582 398.831C113.471 398.609 113.471 398.275 113.804 398.052C114.026 397.941 114.36 397.941 114.582 398.275C114.693 398.497 114.693 398.831 114.36 399.054C114.286 399.054 114.212 399.054 114.137 399.054C113.915 399.054 113.693 399.054 113.582 398.831ZM150.924 397.719C150.59 397.496 150.479 397.162 150.701 396.94C150.812 396.717 151.146 396.606 151.368 396.718C151.702 396.829 151.813 397.162 151.59 397.496C151.516 397.645 151.368 397.719 151.146 397.719C151.072 397.719 150.998 397.719 150.924 397.719ZM110.025 388.151C110.025 387.817 110.248 387.595 110.47 387.595C110.803 387.595 111.137 387.817 111.137 388.04V388.151C111.137 388.374 110.914 388.707 110.581 388.707C110.248 388.707 110.025 388.485 110.025 388.151ZM153.369 386.594C153.369 386.26 153.591 386.037 153.924 386.037C154.258 386.037 154.48 386.26 154.48 386.594C154.48 386.927 154.258 387.15 153.924 387.15C153.591 387.15 153.369 386.927 153.369 386.594ZM153.146 383.479C153.146 383.256 153.369 382.923 153.591 382.923C153.924 382.811 154.258 383.034 154.258 383.368C154.258 383.701 154.035 383.924 153.813 384.035C153.739 384.035 153.702 384.035 153.702 384.035C153.48 384.035 153.146 383.813 153.146 383.479ZM112.359 377.805C112.026 377.694 111.915 377.36 112.026 377.026C112.137 376.804 112.47 376.693 112.804 376.804C113.026 376.915 113.137 377.249 113.026 377.582C112.915 377.805 112.804 377.916 112.582 377.916C112.507 377.916 112.433 377.879 112.359 377.805ZM149.034 373.689C148.812 373.355 148.812 373.021 149.034 372.91C149.368 372.688 149.701 372.687 149.812 373.021C150.034 373.244 150.034 373.577 149.812 373.8C149.664 373.874 149.516 373.911 149.368 373.911C149.219 373.911 149.108 373.837 149.034 373.689ZM119.139 369.239C118.916 368.905 119.027 368.571 119.25 368.46C119.472 368.238 119.917 368.349 120.028 368.571C120.25 368.794 120.139 369.127 119.917 369.35C119.842 369.424 119.731 369.461 119.583 369.461C119.472 369.461 119.25 369.35 119.139 369.239ZM140.477 367.125C140.254 366.902 140.143 366.68 140.254 366.346C140.366 366.012 140.699 365.901 140.921 366.012C141.255 366.124 141.366 366.458 141.255 366.791C141.144 367.014 140.921 367.125 140.699 367.125C140.625 367.125 140.551 367.125 140.477 367.125ZM129.363 365.011C129.252 364.678 129.474 364.455 129.808 364.344C130.141 364.344 130.363 364.566 130.363 364.9C130.474 365.234 130.252 365.456 129.919 365.456C129.585 365.456 129.363 365.345 129.363 365.011Z" fill="white"/>
<path d="M365.083 45.3904C365.083 45.0567 365.306 44.8342 365.639 44.8342C365.973 44.8342 366.195 45.0567 366.195 45.3904C366.195 45.6129 365.973 45.9467 365.639 45.9467C365.417 45.9467 365.083 45.7242 365.083 45.3904ZM355.081 42.0529C354.859 41.9417 354.859 41.4967 355.081 41.2742C355.303 41.0517 355.637 41.0517 355.859 41.2742C356.081 41.4967 356.081 41.8304 355.859 42.0529C355.785 42.2013 355.674 42.2754 355.526 42.2754C355.378 42.2754 355.229 42.2013 355.081 42.0529ZM375.197 41.2742C374.975 41.0517 374.975 40.7179 375.197 40.4954C375.419 40.2729 375.753 40.2729 375.975 40.4954C376.197 40.7179 376.197 41.0517 375.975 41.2742C375.864 41.3854 375.753 41.4967 375.53 41.4967C375.382 41.4967 375.271 41.4225 375.197 41.2742ZM350.08 32.0404C350.08 31.7067 350.302 31.3729 350.636 31.3729C350.969 31.3729 351.191 31.5954 351.191 31.9292C351.191 32.2629 350.969 32.4854 350.747 32.4854H350.636C350.413 32.4854 350.191 32.2629 350.08 32.0404ZM379.087 30.8167C379.087 30.5942 379.309 30.2604 379.642 30.2604C379.976 30.2604 380.198 30.5942 380.198 30.8167C380.198 31.1504 379.976 31.3729 379.642 31.3729C379.309 31.3729 379.087 31.1504 379.087 30.8167ZM378.864 28.7029C378.864 28.4804 379.087 28.1467 379.42 28.1467C379.642 28.0354 379.976 28.2579 379.976 28.5917C380.087 28.9254 379.865 29.1479 379.531 29.2592C379.531 29.2592 379.494 29.2592 379.42 29.2592C379.198 29.2592 378.976 29.0367 378.864 28.7029ZM353.636 22.0279C353.414 21.8054 353.303 21.4717 353.525 21.2492C353.748 21.0267 354.081 21.0267 354.303 21.1379C354.526 21.3604 354.526 21.6942 354.414 21.9167C354.303 22.1392 354.081 22.1392 353.97 22.1392C353.822 22.1392 353.711 22.1021 353.636 22.0279ZM373.641 19.8029C373.308 19.5804 373.308 19.2467 373.53 19.0242C373.641 18.8017 373.974 18.6904 374.308 18.9129C374.53 19.0242 374.53 19.4692 374.419 19.6917C374.271 19.84 374.123 19.9142 373.974 19.9142C373.826 19.9142 373.715 19.8771 373.641 19.8029ZM363.528 17.0217C363.194 17.0217 362.972 16.7992 362.972 16.4654C362.861 16.2429 363.083 15.9092 363.416 15.9092C363.75 15.9092 363.972 16.0204 364.083 16.3542C364.083 16.6879 363.861 16.9104 363.528 17.0217Z" fill="white"/>
<defs>
<linearGradient id="paint0_linear_1_2308" x1="407.982" y1="-210.373" x2="738.563" y2="361.382" gradientUnits="userSpaceOnUse">
<stop stop-color="white"/>
<stop offset="1" stop-color="#00557D"/>
</linearGradient>
<linearGradient id="paint1_linear_1_2308" x1="384.088" y1="-157.752" x2="668.588" y2="334.278" gradientUnits="userSpaceOnUse">
<stop stop-color="#92FFC3"/>
<stop offset="1" stop-color="#64B937"/>
</linearGradient>
<linearGradient id="paint2_linear_1_2308" x1="245.724" y1="348.658" x2="268.987" y2="388.91" gradientUnits="userSpaceOnUse">
<stop stop-color="#00557D"/>
<stop offset="1" stop-color="#19023E"/>
</linearGradient>
<linearGradient id="paint3_linear_1_2308" x1="276.397" y1="18.0231" x2="440.352" y2="301.565" gradientUnits="userSpaceOnUse">
<stop stop-color="white"/>
<stop offset="1" stop-color="#00557D"/>
</linearGradient>
<linearGradient id="paint4_linear_1_2308" x1="240.055" y1="110.806" x2="332.251" y2="176.576" gradientUnits="userSpaceOnUse">
<stop stop-color="#00A3C6"/>
<stop offset="1" stop-color="#64B937"/>
</linearGradient>
<linearGradient id="paint5_linear_1_2308" x1="256.392" y1="265.443" x2="286.097" y2="297.119" gradientUnits="userSpaceOnUse">
<stop stop-color="white"/>
<stop offset="1" stop-color="#00557D"/>
</linearGradient>
<linearGradient id="paint6_linear_1_2308" x1="192.933" y1="230.511" x2="302.16" y2="321.737" gradientUnits="userSpaceOnUse">
<stop stop-color="#19023E"/>
<stop offset="1" stop-color="#E93F7E"/>
</linearGradient>
<linearGradient id="paint7_linear_1_2308" x1="210.494" y1="136.949" x2="250.445" y2="191.2" gradientUnits="userSpaceOnUse">
<stop stop-color="#00A3C6"/>
<stop offset="1" stop-color="#64B937"/>
</linearGradient>
<linearGradient id="paint8_linear_1_2308" x1="300.404" y1="230.733" x2="260.342" y2="176.482" gradientUnits="userSpaceOnUse">
<stop stop-color="#00A3C6"/>
<stop offset="1" stop-color="#64B937"/>
</linearGradient>
<linearGradient id="paint9_linear_1_2308" x1="215.051" y1="62.0776" x2="344.029" y2="237.059" gradientUnits="userSpaceOnUse">
<stop stop-color="#085F3F"/>
<stop offset="1" stop-color="#64B937"/>
</linearGradient>
<linearGradient id="paint10_linear_1_2308" x1="303.403" y1="89.8901" x2="585.618" y2="165.951" gradientUnits="userSpaceOnUse">
<stop stop-color="#2D7109"/>
<stop offset="1" stop-color="#64B937"/>
</linearGradient>
<linearGradient id="paint11_linear_1_2308" x1="384.755" y1="127.604" x2="520.146" y2="262.745" gradientUnits="userSpaceOnUse">
<stop stop-color="#00FFCC"/>
<stop offset="1" stop-color="#000053"/>
</linearGradient>
<linearGradient id="paint12_linear_1_2308" x1="41.4543" y1="225.059" x2="201.826" y2="236.828" gradientUnits="userSpaceOnUse">
<stop stop-color="#00A3C6"/>
<stop offset="1" stop-color="#64B937"/>
</linearGradient>
<linearGradient id="paint13_linear_1_2308" x1="35.0082" y1="232.958" x2="213.162" y2="246.059" gradientUnits="userSpaceOnUse">
<stop stop-color="#00557D"/>
<stop offset="1" stop-color="#19023E"/>
</linearGradient>
<linearGradient id="paint14_linear_1_2308" x1="88.4659" y1="257.767" x2="148.702" y2="260.431" gradientUnits="userSpaceOnUse">
<stop stop-color="#00FFCC"/>
<stop offset="1" stop-color="#000053"/>
</linearGradient>
<linearGradient id="paint15_linear_1_2308" x1="92.6886" y1="262.995" x2="152.925" y2="265.66" gradientUnits="userSpaceOnUse">
<stop stop-color="#00FFCC"/>
<stop offset="1" stop-color="#000053"/>
</linearGradient>
<linearGradient id="paint16_linear_1_2308" x1="96.9112" y1="268.113" x2="157.147" y2="270.778" gradientUnits="userSpaceOnUse">
<stop stop-color="#00FFCC"/>
<stop offset="1" stop-color="#000053"/>
</linearGradient>
<linearGradient id="paint17_linear_1_2308" x1="35.0084" y1="293.367" x2="110.916" y2="300.806" gradientUnits="userSpaceOnUse">
<stop stop-color="#19023E"/>
<stop offset="1" stop-color="#E93F7E"/>
</linearGradient>
<linearGradient id="paint18_linear_1_2308" x1="348.301" y1="203.366" x2="535.201" y2="389.963" gradientUnits="userSpaceOnUse">
<stop stop-color="#00A3C6"/>
<stop offset="1" stop-color="#133600"/>
</linearGradient>
<linearGradient id="paint19_linear_1_2308" x1="331.853" y1="177.778" x2="521.2" y2="366.932" gradientUnits="userSpaceOnUse">
<stop stop-color="#00A3C6"/>
<stop offset="1" stop-color="#64B937"/>
</linearGradient>
<linearGradient id="paint20_linear_1_2308" x1="341.633" y1="219.942" x2="422.4" y2="300.627" gradientUnits="userSpaceOnUse">
<stop stop-color="white"/>
<stop offset="1" stop-color="#00557D"/>
</linearGradient>
<linearGradient id="paint21_linear_1_2308" x1="316.628" y1="6.67512" x2="416.752" y2="106.698" gradientUnits="userSpaceOnUse">
<stop stop-color="#00A3C6"/>
<stop offset="1" stop-color="#64B937"/>
</linearGradient>
<linearGradient id="paint22_linear_1_2308" x1="278.508" y1="24.6972" x2="320.894" y2="67.0401" gradientUnits="userSpaceOnUse">
<stop stop-color="#00A3C6"/>
<stop offset="1" stop-color="#19023E"/>
</linearGradient>
<linearGradient id="paint23_linear_1_2308" x1="289.621" y1="24.6972" x2="332.007" y2="67.0401" gradientUnits="userSpaceOnUse">
<stop stop-color="#00A3C6"/>
<stop offset="1" stop-color="#19023E"/>
</linearGradient>
<linearGradient id="paint24_linear_1_2308" x1="300.846" y1="24.6972" x2="343.232" y2="67.0402" gradientUnits="userSpaceOnUse">
<stop stop-color="#00A3C6"/>
<stop offset="1" stop-color="#19023E"/>
</linearGradient>
<linearGradient id="paint25_linear_1_2308" x1="311.959" y1="24.6972" x2="354.345" y2="67.0401" gradientUnits="userSpaceOnUse">
<stop stop-color="#00A3C6"/>
<stop offset="1" stop-color="#19023E"/>
</linearGradient>
<linearGradient id="paint26_linear_1_2308" x1="108.47" y1="109.804" x2="200.585" y2="201.825" gradientUnits="userSpaceOnUse">
<stop stop-color="#00A3C6"/>
<stop offset="1" stop-color="#19023E"/>
</linearGradient>
<linearGradient id="paint27_linear_1_2308" x1="82.5748" y1="92.7834" x2="174.467" y2="184.582" gradientUnits="userSpaceOnUse">
<stop stop-color="#00A3C6"/>
<stop offset="1" stop-color="#64B937"/>
</linearGradient>
<linearGradient id="paint28_linear_1_2308" x1="110.581" y1="127.271" x2="203.252" y2="219.847" gradientUnits="userSpaceOnUse">
<stop stop-color="#00FFCC"/>
<stop offset="1" stop-color="#000053"/>
</linearGradient>
<linearGradient id="paint29_linear_1_2308" x1="155.592" y1="73.5364" x2="234.245" y2="152.11" gradientUnits="userSpaceOnUse">
<stop stop-color="#00A3C6"/>
<stop offset="1" stop-color="#19023E"/>
</linearGradient>
<linearGradient id="paint30_linear_1_2308" x1="133.587" y1="59.0737" x2="212.019" y2="137.425" gradientUnits="userSpaceOnUse">
<stop stop-color="#00A3C6"/>
<stop offset="1" stop-color="#64B937"/>
</linearGradient>
<linearGradient id="paint31_linear_1_2308" x1="157.37" y1="88.4435" x2="236.58" y2="167.573" gradientUnits="userSpaceOnUse">
<stop stop-color="#00FFCC"/>
<stop offset="1" stop-color="#000053"/>
</linearGradient>
<linearGradient id="paint32_linear_1_2308" x1="105.58" y1="95.7864" x2="166.323" y2="156.467" gradientUnits="userSpaceOnUse">
<stop stop-color="#00A3C6"/>
<stop offset="1" stop-color="#19023E"/>
</linearGradient>
<linearGradient id="paint33_linear_1_2308" x1="88.4652" y1="72.0909" x2="156.105" y2="139.662" gradientUnits="userSpaceOnUse">
<stop stop-color="#00A3C6"/>
<stop offset="1" stop-color="#19023E"/>
</linearGradient>
<linearGradient id="paint34_linear_1_2308" x1="144.922" y1="178" x2="212.562" y2="245.571" gradientUnits="userSpaceOnUse">
<stop stop-color="#00A3C6"/>
<stop offset="1" stop-color="#19023E"/>
</linearGradient>
<linearGradient id="paint35_linear_1_2308" x1="391.201" y1="77.875" x2="458.841" y2="145.446" gradientUnits="userSpaceOnUse">
<stop stop-color="#00A3C6"/>
<stop offset="1" stop-color="#19023E"/>
</linearGradient>
<linearGradient id="paint36_linear_1_2308" x1="369.862" y1="186.9" x2="403.682" y2="220.685" gradientUnits="userSpaceOnUse">
<stop stop-color="#00A3C6"/>
<stop offset="1" stop-color="#19023E"/>
</linearGradient>
<linearGradient id="paint37_linear_1_2308" x1="393.535" y1="210.708" x2="449.16" y2="266.276" gradientUnits="userSpaceOnUse">
<stop stop-color="#00A3C6"/>
<stop offset="1" stop-color="#19023E"/>
</linearGradient>
<linearGradient id="paint38_linear_1_2308" x1="132.031" y1="324.628" x2="187.656" y2="380.196" gradientUnits="userSpaceOnUse">
<stop stop-color="#00A3C6"/>
<stop offset="1" stop-color="#19023E"/>
</linearGradient>
</defs>
</svg>
