<svg width="106" height="105" viewBox="0 0 106 105" fill="none" xmlns="http://www.w3.org/2000/svg">
<g filter="url(#filter0_d_1_232)">
<ellipse cx="52.776" cy="50.4951" rx="19.4245" ry="19.4472" fill="#7AC751"/>
</g>
<g clip-path="url(#clip0_1_232)">
<path d="M61.6791 56.1672H60.0604V54.5466C60.0604 54.3317 59.9752 54.1256 59.8234 53.9737C59.6716 53.8217 59.4657 53.7363 59.2511 53.7363C59.0364 53.7363 58.8306 53.8217 58.6788 53.9737C58.527 54.1256 58.4417 54.3317 58.4417 54.5466V56.1672H56.823C56.6084 56.1672 56.4025 56.2526 56.2507 56.4046C56.0989 56.5565 56.0137 56.7626 56.0137 56.9775C56.0137 57.1924 56.0989 57.3985 56.2507 57.5505C56.4025 57.7025 56.6084 57.7878 56.823 57.7878H58.4417V59.4084C58.4417 59.6233 58.527 59.8294 58.6788 59.9814C58.8306 60.1334 59.0364 60.2187 59.2511 60.2187C59.4657 60.2187 59.6716 60.1334 59.8234 59.9814C59.9752 59.8294 60.0604 59.6233 60.0604 59.4084V57.7878H61.6791C61.8938 57.7878 62.0997 57.7025 62.2514 57.5505C62.4032 57.3985 62.4885 57.1924 62.4885 56.9775C62.4885 56.7626 62.4032 56.5565 62.2514 56.4046C62.0997 56.2526 61.8938 56.1672 61.6791 56.1672Z" fill="white"/>
<path d="M60.0609 45.6333H57.6328C57.6328 44.3439 57.1212 43.1072 56.2105 42.1955C55.2998 41.2837 54.0646 40.7715 52.7767 40.7715C51.4888 40.7715 50.2536 41.2837 49.3429 42.1955C48.4322 43.1072 47.9206 44.3439 47.9206 45.6333H45.4925C44.8485 45.6333 44.231 45.8894 43.7756 46.3453C43.3203 46.8012 43.0645 47.4195 43.0645 48.0642V56.1672C43.0657 57.2413 43.4925 58.2711 44.2511 59.0306C45.0098 59.7902 46.0383 60.2174 47.1112 60.2187H54.3954C54.61 60.2187 54.8159 60.1334 54.9677 59.9814C55.1195 59.8294 55.2047 59.6233 55.2047 59.4084C55.2047 59.1935 55.1195 58.9874 54.9677 58.8354C54.8159 58.6835 54.61 58.5981 54.3954 58.5981H47.1112C46.4673 58.5981 45.8497 58.342 45.3943 57.8861C44.939 57.4302 44.6832 56.8119 44.6832 56.1672V48.0642C44.6832 47.8493 44.7684 47.6432 44.9202 47.4912C45.072 47.3393 45.2779 47.2539 45.4925 47.2539H47.9206V48.8745C47.9206 49.0894 48.0058 49.2955 48.1576 49.4475C48.3094 49.5994 48.5153 49.6848 48.7299 49.6848C48.9446 49.6848 49.1504 49.5994 49.3022 49.4475C49.454 49.2955 49.5393 49.0894 49.5393 48.8745V47.2539H56.0141V48.8745C56.0141 49.0894 56.0994 49.2955 56.2511 49.4475C56.4029 49.5994 56.6088 49.6848 56.8234 49.6848C57.0381 49.6848 57.244 49.5994 57.3957 49.4475C57.5475 49.2955 57.6328 49.0894 57.6328 48.8745V47.2539H60.0609C60.2755 47.2539 60.4814 47.3393 60.6332 47.4912C60.7849 47.6432 60.8702 47.8493 60.8702 48.0642V52.1157C60.8702 52.3306 60.9555 52.5367 61.1073 52.6887C61.259 52.8406 61.4649 52.926 61.6796 52.926C61.8942 52.926 62.1001 52.8406 62.2519 52.6887C62.4036 52.5367 62.4889 52.3306 62.4889 52.1157V48.0642C62.4889 47.4195 62.2331 46.8012 61.7778 46.3453C61.3224 45.8894 60.7048 45.6333 60.0609 45.6333ZM49.5393 45.6333C49.5393 44.7737 49.8804 43.9493 50.4875 43.3414C51.0946 42.7336 51.9181 42.3921 52.7767 42.3921C53.6353 42.3921 54.4587 42.7336 55.0659 43.3414C55.673 43.9493 56.0141 44.7737 56.0141 45.6333H49.5393Z" fill="white"/>
</g>
<defs>
<filter id="filter0_d_1_232" x="0.351562" y="0.0478516" width="104.85" height="104.895" filterUnits="userSpaceOnUse" color-interpolation-filters="sRGB">
<feFlood flood-opacity="0" result="BackgroundImageFix"/>
<feColorMatrix in="SourceAlpha" type="matrix" values="0 0 0 0 0 0 0 0 0 0 0 0 0 0 0 0 0 0 127 0" result="hardAlpha"/>
<feOffset dy="2"/>
<feGaussianBlur stdDeviation="16.5"/>
<feComposite in2="hardAlpha" operator="out"/>
<feColorMatrix type="matrix" values="0 0 0 0 0 0 0 0 0 0 0 0 0 0 0 0 0 0 0.09 0"/>
<feBlend mode="normal" in2="BackgroundImageFix" result="effect1_dropShadow_1_232"/>
<feBlend mode="normal" in="SourceGraphic" in2="effect1_dropShadow_1_232" result="shape"/>
</filter>
<clipPath id="clip0_1_232">
<rect width="19.4245" height="19.4472" fill="white" transform="translate(43.0645 40.7715)"/>
</clipPath>
</defs>
</svg>
