<svg width="15" height="8" viewBox="0 0 15 8" fill="none" xmlns="http://www.w3.org/2000/svg">
<path d="M14.334 3.5C14.6101 3.5 14.834 3.72386 14.834 4C14.834 4.27614 14.6101 4.5 14.334 4.5V3.5ZM0.647098 4.35355C0.451836 4.15829 0.451836 3.84171 0.647098 3.64645L3.82908 0.464466C4.02434 0.269204 4.34092 0.269204 4.53619 0.464466C4.73145 0.659728 4.73145 0.976311 4.53619 1.17157L1.70776 4L4.53619 6.82843C4.73145 7.02369 4.73145 7.34027 4.53619 7.53553C4.34092 7.7308 4.02434 7.7308 3.82908 7.53553L0.647098 4.35355ZM14.334 4.5L6.96556 4.5V3.5L14.334 3.5V4.5ZM6.96556 4.5L1.00065 4.5V3.5L6.96556 3.5V4.5Z" fill="#7AC751"/>
</svg>
