<svg width="31" height="32" viewBox="0 0 31 32" fill="none" xmlns="http://www.w3.org/2000/svg">
<mask id="mask0_1_1392" style="mask-type:alpha" maskUnits="userSpaceOnUse" x="0" y="0" width="31" height="32">
<rect y="0.938965" width="31" height="30.6173" fill="#D9D9D9"/>
</mask>
<g mask="url(#mask0_1_1392)">
<path d="M7.74967 19.7476H23.2497V17.1936H7.74967V19.7476ZM7.74967 15.9165H23.2497V13.3625H7.74967V15.9165ZM7.74967 12.0855H23.2497V9.53143H7.74967V12.0855ZM28.4163 29.9638L23.2497 24.8557H5.16634C4.45592 24.8557 3.84776 24.6056 3.34186 24.1054C2.83596 23.6053 2.58301 23.004 2.58301 22.3016V6.97738C2.58301 6.27502 2.83596 5.67376 3.34186 5.17359C3.84776 4.67342 4.45592 4.42334 5.16634 4.42334H25.833C26.5434 4.42334 27.1516 4.67342 27.6575 5.17359C28.1634 5.67376 28.4163 6.27502 28.4163 6.97738V29.9638ZM5.16634 6.97738V22.3016H24.3153L25.833 23.8021V6.97738H5.16634Z" fill="#C0C0C0"/>
</g>
</svg>
