<svg width="29" height="30" viewBox="0 0 29 30" fill="none" xmlns="http://www.w3.org/2000/svg">
<path fill-rule="evenodd" clip-rule="evenodd" d="M28.4392 14.9457C28.4392 13.9095 28.3468 12.9131 28.1754 11.9565H14.5099V17.6094H22.3187C21.9824 19.4362 20.9601 20.9839 19.4234 22.0201V25.6869H24.1126C26.8563 23.1427 28.4392 19.3963 28.4392 14.9457Z" fill="#4285F4"/>
<path fill-rule="evenodd" clip-rule="evenodd" d="M14.5097 29.2273C18.4273 29.2273 21.7118 27.9187 24.1125 25.6868L19.4232 22.0201C18.1239 22.8969 16.4619 23.415 14.5097 23.415C10.7306 23.415 7.53187 20.8443 6.39088 17.3901H1.54333V21.1764C3.93083 25.9525 8.83774 29.2273 14.5097 29.2273Z" fill="#34A853"/>
<path fill-rule="evenodd" clip-rule="evenodd" d="M6.39085 17.3903C6.10065 16.5135 5.93577 15.5769 5.93577 14.6137C5.93577 13.6505 6.10065 12.7139 6.39085 11.8371V8.05078H1.5433C0.560601 10.0236 0 12.2556 0 14.6137C0 16.9718 0.560601 19.2038 1.5433 21.1766L6.39085 17.3903Z" fill="#FBBC05"/>
<path fill-rule="evenodd" clip-rule="evenodd" d="M14.5097 5.81231C16.64 5.81231 18.5526 6.54964 20.0563 7.99773L24.218 3.80623C21.7052 1.44809 18.4207 0 14.5097 0C8.83774 0 3.93083 3.27482 1.54333 8.05087L6.39088 11.8372C7.53187 8.38301 10.7306 5.81231 14.5097 5.81231Z" fill="#EA4335" fill-opacity="0.97"/>
</svg>