<svg width="34" height="35" viewBox="0 0 34 35" fill="none" xmlns="http://www.w3.org/2000/svg">
<mask id="mask0_1_1389" style="mask-type:alpha" maskUnits="userSpaceOnUse" x="0" y="0" width="34" height="35">
<rect y="0.951172" width="34" height="33.5802" fill="#D9D9D9"/>
</mask>
<g mask="url(#mask0_1_1389)">
<path d="M2.83301 29.8931V25.9714C2.83301 25.201 3.0337 24.4774 3.43509 23.8004C3.83648 23.1235 4.39134 22.6099 5.09967 22.2598C6.30384 21.6528 7.66148 21.1393 9.17259 20.7191C10.6837 20.2989 12.3483 20.0888 14.1663 20.0888C14.8747 20.0888 15.5653 20.1239 16.2382 20.1939C16.9111 20.2639 17.5663 20.369 18.2038 20.509L15.7247 22.9601C15.465 22.9134 15.2111 22.89 14.9632 22.89H14.1663C12.49 22.89 10.9847 23.0885 9.65072 23.4853C8.31669 23.8821 7.22467 24.314 6.37467 24.7809C6.16217 24.8976 5.99099 25.061 5.86113 25.2711C5.73127 25.4812 5.66634 25.7146 5.66634 25.9714V27.0919H14.5205L17.3538 29.8931H2.83301ZM22.0288 30.4533L17.1413 25.6212L19.1247 23.6604L22.0288 26.5316L29.183 19.4586L31.1663 21.4194L22.0288 30.4533ZM14.1663 18.6882C12.608 18.6882 11.274 18.1397 10.1643 17.0425C9.05454 15.9454 8.49967 14.6265 8.49967 13.0858C8.49967 11.5452 9.05454 10.2262 10.1643 9.12911C11.274 8.03197 12.608 7.4834 14.1663 7.4834C15.7247 7.4834 17.0587 8.03197 18.1684 9.12911C19.2781 10.2262 19.833 11.5452 19.833 13.0858C19.833 14.6265 19.2781 15.9454 18.1684 17.0425C17.0587 18.1397 15.7247 18.6882 14.1663 18.6882ZM14.1663 15.887C14.9455 15.887 15.6125 15.6127 16.1674 15.0642C16.7222 14.5156 16.9997 13.8561 16.9997 13.0858C16.9997 12.3155 16.7222 11.656 16.1674 11.1075C15.6125 10.5589 14.9455 10.2846 14.1663 10.2846C13.3872 10.2846 12.7202 10.5589 12.1653 11.1075C11.6104 11.656 11.333 12.3155 11.333 13.0858C11.333 13.8561 11.6104 14.5156 12.1653 15.0642C12.7202 15.6127 13.3872 15.887 14.1663 15.887Z" fill="#C0C0C0"/>
</g>
</svg>
