<svg width="25" height="24" viewBox="0 0 25 24" fill="none" xmlns="http://www.w3.org/2000/svg">
<path d="M15.7735 11.1284C17.3244 10.0084 18.3343 8.19581 18.3343 6.15384C18.3343 2.76061 15.5464 0 12.1195 0C8.69273 0 5.9048 2.76061 5.9048 6.15384C5.9048 8.19581 6.91468 10.0084 8.4656 11.1284C4.61032 12.5892 1.86523 16.2905 1.86523 20.6154C1.86523 22.4817 3.39859 24 5.28334 24H18.9557C20.8405 24 22.3739 22.4817 22.3739 20.6154C22.3739 16.2905 19.6288 12.5892 15.7735 11.1284ZM7.76924 6.15384C7.76924 3.77859 9.72079 1.84617 12.1195 1.84617C14.5183 1.84617 16.4698 3.77859 16.4698 6.15384C16.4698 8.52909 14.5183 10.4616 12.1195 10.4616C9.72079 10.4616 7.76924 8.52909 7.76924 6.15384ZM18.9557 22.1538H5.28334C4.42665 22.1538 3.72968 21.4637 3.72968 20.6153C3.72968 16.0344 7.49331 12.3076 12.1196 12.3076C16.7459 12.3076 20.5095 16.0344 20.5095 20.6153C20.5095 21.4637 19.8125 22.1538 18.9557 22.1538Z" fill="#555555"/>
</svg>
