<svg width="23" height="9" viewBox="0 0 23 9" fill="none" xmlns="http://www.w3.org/2000/svg">
<path d="M2.03 8.7C1.98333 8.7 1.94367 8.68367 1.911 8.651C1.87833 8.623 1.862 8.58333 1.862 8.532V8.042C1.526 8.00933 1.23667 7.93 0.994 7.804C0.756 7.67333 0.574 7.51467 0.448 7.328C0.326667 7.13667 0.261333 6.93367 0.252 6.719C0.252 6.677 0.266 6.642 0.294 6.614C0.326667 6.586 0.364 6.572 0.406 6.572H1.029C1.08033 6.572 1.12 6.58367 1.148 6.607C1.18067 6.62567 1.211 6.65833 1.239 6.705C1.29033 6.86367 1.39767 6.99667 1.561 7.104C1.729 7.21133 1.96 7.265 2.254 7.265C2.58067 7.265 2.828 7.21133 2.996 7.104C3.164 6.992 3.248 6.838 3.248 6.642C3.248 6.51133 3.206 6.404 3.122 6.32C3.038 6.236 2.90967 6.16367 2.737 6.103C2.56433 6.03767 2.31 5.963 1.974 5.879C1.42333 5.74833 1.01967 5.57567 0.763 5.361C0.511 5.14167 0.385 4.83133 0.385 4.43C0.385 4.066 0.515667 3.76033 0.777 3.513C1.043 3.261 1.40467 3.107 1.862 3.051V2.568C1.862 2.51667 1.87833 2.477 1.911 2.449C1.94367 2.41633 1.98333 2.4 2.03 2.4H2.457C2.50367 2.4 2.54333 2.41633 2.576 2.449C2.60867 2.48167 2.625 2.52133 2.625 2.568V3.065C2.92833 3.107 3.18733 3.198 3.402 3.338C3.62133 3.47333 3.787 3.632 3.899 3.814C4.01567 3.996 4.07867 4.17333 4.088 4.346C4.088 4.388 4.074 4.423 4.046 4.451C4.018 4.479 3.983 4.493 3.941 4.493H3.29C3.18733 4.493 3.11733 4.44867 3.08 4.36C3.05667 4.21067 2.96567 4.087 2.807 3.989C2.64833 3.88633 2.45 3.835 2.212 3.835C1.95533 3.835 1.75233 3.884 1.603 3.982C1.45367 4.08 1.379 4.22233 1.379 4.409C1.379 4.53967 1.41633 4.647 1.491 4.731C1.56567 4.815 1.68233 4.88967 1.841 4.955C2.00433 5.02033 2.23767 5.09267 2.541 5.172C2.95167 5.26533 3.27833 5.37033 3.521 5.487C3.76833 5.60367 3.95033 5.75067 4.067 5.928C4.18367 6.10533 4.242 6.33167 4.242 6.607C4.242 7.00833 4.09733 7.33733 3.808 7.594C3.51867 7.846 3.12433 7.99767 2.625 8.049V8.532C2.625 8.57867 2.60867 8.61833 2.576 8.651C2.54333 8.68367 2.50367 8.7 2.457 8.7H2.03ZM7.54505 8C7.47171 8 7.40938 7.97433 7.35805 7.923C7.30671 7.87167 7.28105 7.80933 7.28105 7.736V2.038L5.60905 3.325C5.56505 3.36167 5.51371 3.38 5.45505 3.38C5.36705 3.38 5.29371 3.33967 5.23505 3.259L4.77305 2.665C4.73638 2.60633 4.71805 2.55133 4.71805 2.5C4.71805 2.412 4.75838 2.33867 4.83905 2.28L7.30305 0.377C7.36905 0.325666 7.46071 0.299999 7.57805 0.299999H8.54605C8.62671 0.299999 8.68905 0.325666 8.73305 0.377C8.78438 0.421 8.81005 0.483333 8.81005 0.563999V7.736C8.81005 7.80933 8.78438 7.87167 8.73305 7.923C8.68905 7.97433 8.62671 8 8.54605 8H7.54505ZM10.3488 8C10.2755 8 10.2132 7.97433 10.1618 7.923C10.1105 7.87167 10.0848 7.80933 10.0848 7.736V7.175C10.0848 6.977 10.1765 6.80467 10.3598 6.658L12.0978 4.931C12.8532 4.337 13.3775 3.875 13.6708 3.545C13.9715 3.20767 14.1218 2.87767 14.1218 2.555C14.1218 2.21033 14.0265 1.939 13.8358 1.741C13.6525 1.543 13.3738 1.444 12.9998 1.444C12.6332 1.444 12.3435 1.554 12.1308 1.774C11.9182 1.98667 11.7862 2.26533 11.7348 2.61C11.7128 2.698 11.6725 2.764 11.6138 2.808C11.5552 2.84467 11.4892 2.863 11.4158 2.863H10.4368C10.3708 2.863 10.3158 2.841 10.2718 2.797C10.2278 2.753 10.2058 2.70167 10.2058 2.643C10.2205 2.21033 10.3378 1.807 10.5578 1.433C10.7778 1.05167 11.0968 0.747333 11.5148 0.52C11.9328 0.285333 12.4242 0.168 12.9888 0.168C13.5755 0.168 14.0705 0.270667 14.4738 0.476C14.8845 0.674 15.1925 0.949 15.3978 1.301C15.6032 1.653 15.7058 2.05267 15.7058 2.5C15.7058 2.99133 15.5665 3.435 15.2878 3.831C15.0165 4.227 14.5985 4.65233 14.0338 5.107L12.4718 6.691H15.6068C15.6875 6.691 15.7498 6.71667 15.7938 6.768C15.8452 6.812 15.8708 6.87433 15.8708 6.955V7.736C15.8708 7.80933 15.8452 7.87167 15.7938 7.923C15.7498 7.97433 15.6875 8 15.6068 8H10.3488ZM20.0084 8.11C19.0331 8.11 18.3034 7.83867 17.8194 7.296C17.3427 6.75333 17.0824 6.042 17.0384 5.162C17.0311 4.964 17.0274 4.62667 17.0274 4.15C17.0274 3.666 17.0311 3.32133 17.0384 3.116C17.0751 2.25067 17.3391 1.54667 17.8304 1.004C18.3217 0.461333 19.0477 0.19 20.0084 0.19C20.9764 0.19 21.7061 0.461333 22.1974 1.004C22.6887 1.54667 22.9491 2.25067 22.9784 3.116C22.9931 3.32133 23.0004 3.666 23.0004 4.15C23.0004 4.62667 22.9931 4.964 22.9784 5.162C22.9417 6.042 22.6814 6.75333 22.1974 7.296C21.7207 7.83867 20.9911 8.11 20.0084 8.11ZM20.0084 6.845C20.4704 6.845 20.8151 6.69467 21.0424 6.394C21.2697 6.086 21.3907 5.657 21.4054 5.107C21.4201 4.68167 21.4274 4.359 21.4274 4.139C21.4274 3.897 21.4201 3.578 21.4054 3.182C21.3907 2.63933 21.2697 2.214 21.0424 1.906C20.8151 1.598 20.4704 1.444 20.0084 1.444C19.5537 1.444 19.2091 1.598 18.9744 1.906C18.7471 2.214 18.6261 2.63933 18.6114 3.182C18.6041 3.38 18.6004 3.699 18.6004 4.139C18.6004 4.57167 18.6041 4.89433 18.6114 5.107C18.6261 5.657 18.7471 6.086 18.9744 6.394C19.2091 6.69467 19.5537 6.845 20.0084 6.845Z" fill="#7AC751"/>
</svg>
