<svg width="25" height="24" viewBox="0 0 25 24" fill="none" xmlns="http://www.w3.org/2000/svg">
<path d="M21.2078 6H18.1781C18.1781 4.4087 17.5397 2.88258 16.4034 1.75736C15.267 0.632141 13.7258 0 12.1187 0C10.5117 0 8.97048 0.632141 7.83412 1.75736C6.69777 2.88258 6.05937 4.4087 6.05937 6H3.02969C2.22616 6 1.45555 6.31607 0.887375 6.87868C0.319198 7.44129 0 8.20435 0 9L0 19C0.00160357 20.3256 0.534116 21.5964 1.48073 22.5338C2.42734 23.4711 3.71077 23.9984 5.04948 24H19.188C20.5267 23.9984 21.8102 23.4711 22.7568 22.5338C23.7034 21.5964 24.2359 20.3256 24.2375 19V9C24.2375 8.20435 23.9183 7.44129 23.3501 6.87868C22.7819 6.31607 22.0113 6 21.2078 6ZM12.1187 2C13.1901 2 14.2176 2.42143 14.9752 3.17157C15.7327 3.92172 16.1583 4.93913 16.1583 6H8.07917C8.07917 4.93913 8.50476 3.92172 9.26233 3.17157C10.0199 2.42143 11.0474 2 12.1187 2ZM22.2177 19C22.2177 19.7956 21.8985 20.5587 21.3303 21.1213C20.7622 21.6839 19.9915 22 19.188 22H5.04948C4.24596 22 3.47534 21.6839 2.90717 21.1213C2.33899 20.5587 2.01979 19.7956 2.01979 19V9C2.01979 8.73478 2.12619 8.48043 2.31558 8.29289C2.50498 8.10536 2.76185 8 3.02969 8H6.05937V10C6.05937 10.2652 6.16577 10.5196 6.35517 10.7071C6.54456 10.8946 6.80143 11 7.06927 11C7.33711 11 7.59398 10.8946 7.78337 10.7071C7.97277 10.5196 8.07917 10.2652 8.07917 10V8H16.1583V10C16.1583 10.2652 16.2647 10.5196 16.4541 10.7071C16.6435 10.8946 16.9004 11 17.1682 11C17.4361 11 17.6929 10.8946 17.8823 10.7071C18.0717 10.5196 18.1781 10.2652 18.1781 10V8H21.2078C21.4757 8 21.7325 8.10536 21.9219 8.29289C22.1113 8.48043 22.2177 8.73478 22.2177 9V19Z" fill="#555555"/>
</svg>
