<svg width="105" height="105" viewBox="0 0 105 105" fill="none" xmlns="http://www.w3.org/2000/svg">
<g filter="url(#filter0_d_1_3082)">
<ellipse cx="52.4245" cy="50.4477" rx="19.4245" ry="19.4472" fill="#FF0303"/>
</g>
<path fill-rule="evenodd" clip-rule="evenodd" d="M50.9368 44.1338C50.9368 44.0602 50.9965 44.0005 51.0701 44.0005H54.2086C54.2823 44.0005 54.342 44.0602 54.342 44.1338V44.469H50.9368V44.1338ZM49.9368 44.469V44.1338C49.9368 43.5079 50.4442 43.0005 51.0701 43.0005H54.2086C54.8346 43.0005 55.342 43.5079 55.342 44.1338V44.469H57.1455C57.7714 44.469 58.2788 44.9764 58.2788 45.6023V45.8041C58.2788 46.43 57.7714 46.9374 57.1455 46.9374H48.1333C47.5074 46.9374 47 46.43 47 45.8041V45.6023C47 44.9764 47.5074 44.469 48.1333 44.469H49.9368ZM48.1333 45.469C48.0597 45.469 48 45.5287 48 45.6023V45.8041C48 45.8777 48.0597 45.9374 48.1333 45.9374H57.1455C57.2191 45.9374 57.2788 45.8777 57.2788 45.8041V45.6023C57.2788 45.5287 57.2191 45.469 57.1455 45.469H48.1333ZM48 48.5386C48 48.4649 48.0597 48.4053 48.1333 48.4053H57.1455C57.2191 48.4053 57.2788 48.4649 57.2788 48.5386V55.449C57.2788 55.8724 56.9356 56.2157 56.5121 56.2157H48.7667C48.3432 56.2157 48 55.8724 48 55.449V48.5386ZM48.1333 47.4053C47.5074 47.4053 47 47.9127 47 48.5386V55.449C47 56.4247 47.791 57.2157 48.7667 57.2157H56.5121C57.4878 57.2157 58.2788 56.4247 58.2788 55.449V48.5386C58.2788 47.9127 57.7714 47.4053 57.1455 47.4053H48.1333ZM49.4684 50.8422C49.4684 50.7129 49.5732 50.608 49.7026 50.608C49.8319 50.608 49.9368 50.7129 49.9368 50.8422V53.779C49.9368 53.9084 49.8319 54.0132 49.7026 54.0132C49.5732 54.0132 49.4684 53.9084 49.4684 53.779V50.8422ZM49.7026 49.608C49.021 49.608 48.4684 50.1606 48.4684 50.8422V53.779C48.4684 54.4607 49.021 55.0132 49.7026 55.0132C50.3842 55.0132 50.9368 54.4607 50.9368 53.779V50.8422C50.9368 50.1606 50.3842 49.608 49.7026 49.608ZM52.6394 50.608C52.5101 50.608 52.4052 50.7129 52.4052 50.8422V53.779C52.4052 53.9084 52.5101 54.0132 52.6394 54.0132C52.7687 54.0132 52.8736 53.9084 52.8736 53.779V50.8422C52.8736 50.7129 52.7687 50.608 52.6394 50.608ZM51.4052 50.8422C51.4052 50.1606 51.9578 49.608 52.6394 49.608C53.321 49.608 53.8736 50.1606 53.8736 50.8422V53.779C53.8736 54.4607 53.321 55.0132 52.6394 55.0132C51.9578 55.0132 51.4052 54.4607 51.4052 53.779V50.8422ZM55.342 50.8422C55.342 50.7129 55.4469 50.608 55.5762 50.608C55.7055 50.608 55.8104 50.7129 55.8104 50.8422V53.779C55.8104 53.9084 55.7055 54.0132 55.5762 54.0132C55.4469 54.0132 55.342 53.9084 55.342 53.779V50.8422ZM55.5762 49.608C54.8946 49.608 54.342 50.1606 54.342 50.8422V53.779C54.342 54.4607 54.8946 55.0132 55.5762 55.0132C56.2578 55.0132 56.8104 54.4607 56.8104 53.779V50.8422C56.8104 50.1606 56.2578 49.608 55.5762 49.608Z" fill="white"/>
<defs>
<filter id="filter0_d_1_3082" x="0" y="0.000488281" width="104.849" height="104.895" filterUnits="userSpaceOnUse" color-interpolation-filters="sRGB">
<feFlood flood-opacity="0" result="BackgroundImageFix"/>
<feColorMatrix in="SourceAlpha" type="matrix" values="0 0 0 0 0 0 0 0 0 0 0 0 0 0 0 0 0 0 127 0" result="hardAlpha"/>
<feOffset dy="2"/>
<feGaussianBlur stdDeviation="16.5"/>
<feComposite in2="hardAlpha" operator="out"/>
<feColorMatrix type="matrix" values="0 0 0 0 0 0 0 0 0 0 0 0 0 0 0 0 0 0 0.09 0"/>
<feBlend mode="normal" in2="BackgroundImageFix" result="effect1_dropShadow_1_3082"/>
<feBlend mode="normal" in="SourceGraphic" in2="effect1_dropShadow_1_3082" result="shape"/>
</filter>
</defs>
</svg>
