<svg width="50" height="50" viewBox="0 0 50 50" fill="none" xmlns="http://www.w3.org/2000/svg">
<circle cx="25" cy="25" r="25" fill="#7AC751"/>
<path d="M13.9878 31.0852C13.1025 31.0852 12.3398 30.9358 11.6998 30.6372C11.0705 30.3385 10.5851 29.9438 10.2438 29.4532C9.91313 28.9625 9.73713 28.4345 9.7158 27.8692V27.8372C9.7158 27.7518 9.7478 27.6825 9.8118 27.6292C9.8758 27.5758 9.9558 27.5492 10.0518 27.5492H11.5398C11.7851 27.5492 11.9451 27.6558 12.0198 27.8692C12.1691 28.3385 12.4145 28.6852 12.7558 28.9092C13.1078 29.1332 13.5185 29.2452 13.9878 29.2452C14.5851 29.2452 15.0811 29.0638 15.4758 28.7012C15.8811 28.3385 16.0838 27.8318 16.0838 27.1812C16.0838 26.6052 15.8811 26.1358 15.4758 25.7732C15.0811 25.4105 14.5851 25.2292 13.9878 25.2292C13.6678 25.2292 13.4065 25.2718 13.2038 25.3572C13.0011 25.4425 12.8038 25.5598 12.6118 25.7092C12.4838 25.8052 12.3825 25.8745 12.3078 25.9172C12.2438 25.9492 12.1638 25.9652 12.0678 25.9652H10.5958C10.4998 25.9652 10.4145 25.9332 10.3398 25.8692C10.2758 25.7945 10.2438 25.7092 10.2438 25.6132L10.8038 20.1412C10.8145 20.0132 10.8571 19.9118 10.9318 19.8372C11.0171 19.7518 11.1238 19.7092 11.2518 19.7092H17.2678C17.3745 19.7092 17.4651 19.7465 17.5398 19.8212C17.6145 19.8958 17.6518 19.9865 17.6518 20.0932V21.1652C17.6518 21.2718 17.6145 21.3625 17.5398 21.4372C17.4651 21.5118 17.3745 21.5492 17.2678 21.5492H12.6438L12.3878 24.1572C12.9105 23.7945 13.6091 23.6132 14.4838 23.6132C15.1771 23.6132 15.8171 23.7625 16.4038 24.0612C17.0011 24.3492 17.4758 24.7705 17.8278 25.3252C18.1798 25.8692 18.3558 26.5038 18.3558 27.2292C18.3558 28.0078 18.1745 28.6905 17.8118 29.2772C17.4491 29.8532 16.9371 30.3012 16.2758 30.6212C15.6251 30.9305 14.8625 31.0852 13.9878 31.0852ZM24.5817 31.0692C23.163 31.0692 22.1017 30.6745 21.3977 29.8852C20.7043 29.0958 20.3257 28.0612 20.2617 26.7812C20.251 26.4932 20.2457 26.0025 20.2457 25.3092C20.2457 24.6052 20.251 24.1038 20.2617 23.8052C20.315 22.5465 20.699 21.5225 21.4137 20.7332C22.1283 19.9438 23.1843 19.5492 24.5817 19.5492C25.9897 19.5492 27.051 19.9438 27.7657 20.7332C28.4803 21.5225 28.859 22.5465 28.9017 23.8052C28.923 24.1038 28.9337 24.6052 28.9337 25.3092C28.9337 26.0025 28.923 26.4932 28.9017 26.7812C28.8483 28.0612 28.4697 29.0958 27.7657 29.8852C27.0723 30.6745 26.011 31.0692 24.5817 31.0692ZM24.5817 29.2292C25.2537 29.2292 25.755 29.0105 26.0857 28.5732C26.4163 28.1252 26.5923 27.5012 26.6137 26.7012C26.635 26.0825 26.6457 25.6132 26.6457 25.2932C26.6457 24.9412 26.635 24.4772 26.6137 23.9012C26.5923 23.1118 26.4163 22.4932 26.0857 22.0452C25.755 21.5972 25.2537 21.3732 24.5817 21.3732C23.9203 21.3732 23.419 21.5972 23.0777 22.0452C22.747 22.4932 22.571 23.1118 22.5497 23.9012C22.539 24.1892 22.5337 24.6532 22.5337 25.2932C22.5337 25.9225 22.539 26.3918 22.5497 26.7012C22.571 27.5012 22.747 28.1252 23.0777 28.5732C23.419 29.0105 23.9203 29.2292 24.5817 29.2292ZM33.2413 25.3412C32.5373 25.3412 31.972 25.1545 31.5453 24.7812C31.1293 24.4078 30.9 23.9012 30.8573 23.2612C30.8466 23.0798 30.8413 22.8398 30.8413 22.5412C30.8413 22.2212 30.8466 21.9652 30.8573 21.7732C30.9 21.1118 31.124 20.5892 31.5293 20.2052C31.9346 19.8212 32.5053 19.6292 33.2413 19.6292C33.9773 19.6292 34.548 19.8212 34.9533 20.2052C35.3693 20.5892 35.5933 21.1118 35.6253 21.7732C35.6466 22.1998 35.6573 22.4772 35.6573 22.6052C35.6573 22.7225 35.6466 22.9412 35.6253 23.2612C35.5933 23.9012 35.364 24.4078 34.9373 24.7812C34.5213 25.1545 33.956 25.3412 33.2413 25.3412ZM31.9293 30.9092C31.8333 30.9092 31.7533 30.8825 31.6893 30.8292C31.6253 30.7652 31.5933 30.6852 31.5933 30.5892C31.5933 30.5252 31.6146 30.4665 31.6573 30.4132L39.5453 20.0132C39.6306 19.9065 39.7106 19.8318 39.7853 19.7892C39.86 19.7358 39.9613 19.7092 40.0893 19.7092H40.9373C41.044 19.7092 41.124 19.7412 41.1773 19.8052C41.2413 19.8585 41.2733 19.9332 41.2733 20.0292C41.2733 20.0932 41.252 20.1518 41.2093 20.2052L33.3213 30.6052C33.236 30.7118 33.156 30.7918 33.0813 30.8452C33.0066 30.8878 32.9053 30.9092 32.7773 30.9092H31.9293ZM33.2413 24.1572C33.5506 24.1572 33.78 24.0665 33.9293 23.8852C34.0786 23.6932 34.164 23.4585 34.1853 23.1812C34.2066 22.8185 34.2173 22.5945 34.2173 22.5092C34.2173 22.3918 34.2066 22.1732 34.1853 21.8532C34.1746 21.5758 34.0893 21.3465 33.9293 21.1652C33.78 20.9732 33.5506 20.8772 33.2413 20.8772C32.932 20.8772 32.7026 20.9732 32.5533 21.1652C32.404 21.3465 32.324 21.5758 32.3133 21.8532C32.3026 22.0132 32.2973 22.2318 32.2973 22.5092C32.2973 22.7758 32.3026 22.9998 32.3133 23.1812C32.3346 23.4585 32.4146 23.6932 32.5533 23.8852C32.7026 24.0665 32.932 24.1572 33.2413 24.1572ZM39.6253 31.0052C38.9213 31.0052 38.356 30.8132 37.9293 30.4292C37.5133 30.0345 37.284 29.5118 37.2413 28.8612C37.2306 28.6798 37.2253 28.4398 37.2253 28.1412C37.2253 27.8318 37.2306 27.5812 37.2413 27.3892C37.284 26.7278 37.508 26.2052 37.9133 25.8212C38.3186 25.4372 38.8893 25.2452 39.6253 25.2452C40.3613 25.2452 40.932 25.4372 41.3373 25.8212C41.7533 26.2052 41.9773 26.7278 42.0093 27.3892C42.0306 27.8158 42.0413 28.0878 42.0413 28.2052C42.0413 28.3225 42.0306 28.5412 42.0093 28.8612C41.9666 29.5118 41.732 30.0345 41.3053 30.4292C40.8893 30.8132 40.3293 31.0052 39.6253 31.0052ZM39.6253 29.7572C39.9453 29.7572 40.1746 29.6665 40.3133 29.4852C40.4626 29.2932 40.548 29.0638 40.5693 28.7972C40.5906 28.4345 40.6013 28.2105 40.6013 28.1252C40.6013 28.0078 40.5906 27.7892 40.5693 27.4692C40.5586 27.1918 40.4733 26.9572 40.3133 26.7652C40.164 26.5732 39.9346 26.4772 39.6253 26.4772C39.316 26.4772 39.0866 26.5732 38.9373 26.7652C38.788 26.9465 38.7026 27.1812 38.6813 27.4692C38.6706 27.6292 38.6653 27.8478 38.6653 28.1252C38.6653 28.3918 38.6706 28.6158 38.6813 28.7972C38.7133 29.0745 38.7986 29.3038 38.9373 29.4852C39.0866 29.6665 39.316 29.7572 39.6253 29.7572Z" fill="white"/>
</svg>
