<svg width="17" height="16" viewBox="0 0 17 16" fill="none" xmlns="http://www.w3.org/2000/svg">
<path d="M5.59038 5.12923L5.89774 5.08662L6.04061 4.81116L8.11352 0.814457C8.18353 0.679622 8.32223 0.599718 8.49145 0.600247C8.66202 0.60078 8.80204 0.683007 8.87103 0.814995C8.87109 0.815115 8.87115 0.815235 8.87121 0.815355L10.9437 4.81116L11.0865 5.08662L11.3939 5.12923L16.032 5.77224L16.0324 5.7723C16.2164 5.79768 16.3245 5.90911 16.3656 6.02944C16.4058 6.14708 16.3855 6.27775 16.2687 6.38595L16.2685 6.38611L12.9129 9.49551L12.6719 9.71889L12.7303 10.0423L13.5239 14.4343C13.5239 14.4343 13.5239 14.4343 13.5239 14.4343C13.548 14.5687 13.4944 14.6915 13.3689 14.7773C13.2397 14.8656 13.0674 14.8876 12.9097 14.8087L12.9096 14.8087L8.76039 12.7347L8.49213 12.6006L8.22387 12.7347L4.07464 14.8087L4.07279 14.8096C3.9159 14.8887 3.74468 14.867 3.61579 14.7787C3.49021 14.6927 3.43618 14.569 3.46037 14.4344C3.46038 14.4343 3.46038 14.4343 3.46039 14.4343L4.25397 10.0423L4.31241 9.71889L4.07134 9.49551L0.715767 6.38611L0.715593 6.38595C0.598729 6.27775 0.57851 6.14708 0.618655 6.02944C0.659717 5.90911 0.767868 5.79767 0.951838 5.7723L0.952255 5.77224L5.59038 5.12923Z" fill="white" stroke="#7AC751" stroke-width="1.2"/>
</svg>
