<svg width="86" height="82" viewBox="0 0 86 82" fill="none" xmlns="http://www.w3.org/2000/svg">
<g filter="url(#filter0_d_1_1164)">
<rect x="13" y="3" width="60" height="56" rx="28" fill="white"/>
</g>
<path fill-rule="evenodd" clip-rule="evenodd" d="M57.439 31.5314C57.439 30.5239 57.3467 29.5551 57.1752 28.625H43.5098V34.1213H51.3186C50.9822 35.8975 49.96 37.4024 48.4233 38.4099V41.9751H53.1125C55.8562 39.5014 57.439 35.8587 57.439 31.5314Z" fill="#4285F4"/>
<path fill-rule="evenodd" clip-rule="evenodd" d="M43.5093 45.4176C47.4269 45.4176 50.7114 44.1452 53.1121 41.9751L48.4228 38.4099C47.1236 39.2625 45.4615 39.7662 43.5093 39.7662C39.7302 39.7662 36.5315 37.2667 35.3905 33.9082H30.543V37.5897C32.9305 42.2335 37.8374 45.4176 43.5093 45.4176Z" fill="#34A853"/>
<path fill-rule="evenodd" clip-rule="evenodd" d="M35.3908 33.909C35.1007 33.0565 34.9358 32.1458 34.9358 31.2093C34.9358 30.2728 35.1007 29.3621 35.3908 28.5096V24.8281H30.5433C29.5606 26.7464 29 28.9165 29 31.2093C29 33.5021 29.5606 35.6723 30.5433 37.5905L35.3908 33.909Z" fill="#FBBC05"/>
<path fill-rule="evenodd" clip-rule="evenodd" d="M43.5093 22.6514C45.6396 22.6514 47.5522 23.3683 49.056 24.7763L53.2176 20.7008C50.7048 18.408 47.4203 17 43.5093 17C37.8374 17 32.9305 20.1841 30.543 24.8279L35.3905 28.5094C36.5315 25.1509 39.7302 22.6514 43.5093 22.6514Z" fill="#EA4335" fill-opacity="0.97"/>
<defs>
<filter id="filter0_d_1_1164" x="0" y="0" width="86" height="82" filterUnits="userSpaceOnUse" color-interpolation-filters="sRGB">
<feFlood flood-opacity="0" result="BackgroundImageFix"/>
<feColorMatrix in="SourceAlpha" type="matrix" values="0 0 0 0 0 0 0 0 0 0 0 0 0 0 0 0 0 0 127 0" result="hardAlpha"/>
<feOffset dy="10"/>
<feGaussianBlur stdDeviation="6.5"/>
<feComposite in2="hardAlpha" operator="out"/>
<feColorMatrix type="matrix" values="0 0 0 0 0 0 0 0 0 0 0 0 0 0 0 0 0 0 0.13 0"/>
<feBlend mode="normal" in2="BackgroundImageFix" result="effect1_dropShadow_1_1164"/>
<feBlend mode="normal" in="SourceGraphic" in2="effect1_dropShadow_1_1164" result="shape"/>
</filter>
</defs>
</svg>
