<svg width="24" height="24" viewBox="0 0 24 24" fill="none" xmlns="http://www.w3.org/2000/svg">
<path d="M11.776 21.1559L3.5352 12.9054C2.44227 11.8113 1.82822 10.3273 1.82813 8.77998C1.82803 7.23262 2.44191 5.7486 3.53471 4.65439C4.62752 3.56018 6.10972 2.9454 7.65527 2.94531C9.20082 2.94522 10.6831 3.55982 11.776 4.6539C12.8695 3.56106 14.3514 2.94726 15.8964 2.94726C17.4415 2.94726 18.9234 3.56106 20.0169 4.6539C21.1079 5.74889 21.7207 7.23245 21.7207 8.77915C21.7207 10.3258 21.1079 11.8094 20.0169 12.9044L11.776 21.1559ZM7.65513 4.89019C6.88669 4.89016 6.1355 5.11829 5.49658 5.54573C4.85766 5.97316 4.3597 6.5807 4.06569 7.2915C3.77168 8.00231 3.69483 8.78444 3.84485 9.53897C3.99487 10.2935 4.36503 10.9866 4.90851 11.5304L11.776 18.406L18.6435 11.5304C19.038 11.1443 19.3458 10.6785 19.5464 10.1641C19.7471 9.64958 19.836 9.09821 19.8072 8.54666C19.7785 7.9951 19.6327 7.456 19.3797 6.96523C19.1266 6.47446 18.7721 6.04328 18.3396 5.70037C17.9071 5.35747 17.4067 5.1107 16.8716 4.9765C16.3364 4.84231 15.7789 4.82375 15.2361 4.92207C14.6932 5.02038 14.1775 5.23332 13.7233 5.54671C13.269 5.86011 12.8866 6.26676 12.6016 6.73962L11.776 8.0737L10.9505 6.73962C10.6097 6.17082 10.1263 5.70109 9.54827 5.37702C8.97022 5.05295 8.3176 4.88579 7.65513 4.89213V4.89019Z" fill="#757575"/>
</svg>
