<svg width="19" height="20" viewBox="0 0 19 20" fill="none" xmlns="http://www.w3.org/2000/svg">
<path d="M16.4783 10.9404C16.5183 10.6404 16.5383 10.3304 16.5383 10.0004C16.5383 9.68039 16.5183 9.36039 16.4683 9.06039L18.4983 7.48039C18.5858 7.40829 18.6456 7.30809 18.6675 7.19686C18.6894 7.08563 18.672 6.97026 18.6183 6.87039L16.6983 3.55039C16.6418 3.44996 16.5516 3.37277 16.4436 3.3325C16.3356 3.29224 16.2168 3.29149 16.1083 3.33039L13.7183 4.29039C13.2183 3.91039 12.6883 3.59039 12.0983 3.35039L11.7383 0.810393C11.7206 0.695924 11.6625 0.591601 11.5744 0.51637C11.4863 0.441139 11.3742 0.399989 11.2583 0.400394H7.41834C7.17834 0.400394 6.98834 0.570393 6.94834 0.810393L6.58834 3.35039C5.99834 3.59039 5.45834 3.92039 4.96834 4.29039L2.57834 3.33039C2.35834 3.25039 2.10834 3.33039 1.98834 3.55039L0.078343 6.87039C-0.0416569 7.08039 -0.00165707 7.34039 0.198343 7.48039L2.22834 9.06039C2.17834 9.36039 2.13834 9.69039 2.13834 10.0004C2.13834 10.3104 2.15834 10.6404 2.20834 10.9404L0.178343 12.5204C0.0908669 12.5925 0.0310966 12.6927 0.00921549 12.8039C-0.0126656 12.9152 0.00469628 13.0305 0.0583431 13.1304L1.97834 16.4504C2.09834 16.6704 2.34834 16.7404 2.56834 16.6704L4.95834 15.7104C5.45834 16.0904 5.98834 16.4104 6.57834 16.6504L6.93834 19.1904C6.98834 19.4304 7.17834 19.6004 7.41834 19.6004H11.2583C11.4983 19.6004 11.6983 19.4304 11.7283 19.1904L12.0883 16.6504C12.6783 16.4104 13.2183 16.0904 13.7083 15.7104L16.0983 16.6704C16.3183 16.7504 16.5683 16.6704 16.6883 16.4504L18.6083 13.1304C18.7283 12.9104 18.6783 12.6604 18.4883 12.5204L16.4783 10.9404ZM9.33834 13.6004C7.35834 13.6004 5.73834 11.9804 5.73834 10.0004C5.73834 8.02039 7.35834 6.40039 9.33834 6.40039C11.3183 6.40039 12.9383 8.02039 12.9383 10.0004C12.9383 11.9804 11.3183 13.6004 9.33834 13.6004Z" fill="#555555"/>
</svg>
