<svg width="17" height="16" viewBox="0 0 17 16" fill="none" xmlns="http://www.w3.org/2000/svg">
<path d="M5.606 5.12899L5.91337 5.08638L6.05623 4.81092L8.12914 0.814213C8.19915 0.679378 8.33785 0.599474 8.50707 0.600002C8.67765 0.600535 8.81766 0.682763 8.88665 0.814751C8.88671 0.814871 8.88678 0.814991 8.88684 0.815111L10.9593 4.81092L11.1021 5.08638L11.4095 5.12899L16.0476 5.772L16.048 5.77206C16.232 5.79743 16.3402 5.90887 16.3812 6.02919C16.4214 6.14683 16.4012 6.2775 16.2843 6.38571L16.2841 6.38587L12.9285 9.49527L12.6875 9.71864L12.7459 10.0421L13.5395 14.434C13.5395 14.434 13.5395 14.434 13.5395 14.4341C13.5637 14.5684 13.51 14.6912 13.3845 14.7771C13.2554 14.8654 13.0831 14.8873 12.9253 14.8085L12.9252 14.8084L8.77602 12.7345L8.50776 12.6004L8.2395 12.7345L4.09026 14.8084L4.08842 14.8094C3.93152 14.8885 3.7603 14.8668 3.63142 14.7785C3.50584 14.6924 3.45181 14.5688 3.476 14.4341C3.476 14.4341 3.47601 14.4341 3.47602 14.434L4.26959 10.0421L4.32803 9.71864L4.08697 9.49527L0.731392 6.38587L0.731218 6.38571C0.614354 6.2775 0.594135 6.14683 0.63428 6.02919C0.675342 5.90887 0.783493 5.79743 0.967463 5.77206L0.96788 5.772L5.606 5.12899Z" fill="white" stroke="#CCCCCC" stroke-width="1.2"/>
</svg>
